<svg width="22" height="34" viewBox="0 0 22 34" fill="none" xmlns="http://www.w3.org/2000/svg">
<path d="M17.24 34H7.064C4.76 31.888 3.08 29.376 2.024 26.464C0.968 23.552 0.44 20.512 0.44 17.344C0.44 14.144 1.08 10.992 2.36 7.888C3.64 4.784 5.432 2.288 7.736 0.399998H19.4V6.16H10.472C9.64 7.12 8.92 8.64 8.312 10.72C7.704 12.768 7.4 14.96 7.4 17.296C7.4 19.6 7.672 21.808 8.216 23.92C8.792 26 9.496 27.504 10.328 28.432H14.936V15.376H21.272V23.44C21.272 27.856 19.928 31.376 17.24 34Z" fill="#F38F00"/>
</svg>
