<svg width="36" height="36" viewBox="0 0 36 36" fill="none" xmlns="http://www.w3.org/2000/svg">
<path d="M30.9376 5.19181C30.2277 4.45982 29.3778 3.87797 28.4386 3.48082C27.4993 3.08368 26.4898 2.87934 25.4701 2.87993H25.4082C23.2668 2.87771 21.2111 3.72064 19.6876 5.22556L12.7576 12.1724C11.5077 13.4334 10.7239 15.0819 10.5348 16.8473C10.3456 18.6126 10.7626 20.3897 11.717 21.8868C11.872 22.1298 12.0801 22.3345 12.3256 22.4855C12.5711 22.6366 12.8477 22.73 13.1345 22.7587C13.2056 22.7643 13.2771 22.7643 13.3482 22.7587C13.8657 22.7615 14.3632 22.5592 14.732 22.1962C15.0457 21.8852 15.2435 21.4763 15.2926 21.0372C15.3417 20.5982 15.2392 20.1557 15.002 19.7831C14.5241 19.0365 14.3149 18.1492 14.409 17.2678C14.503 16.3863 14.8948 15.5633 15.5195 14.9343L22.5957 7.87494C22.9785 7.49469 23.4363 7.19826 23.9398 7.00459C24.4434 6.81092 24.9818 6.72418 25.5207 6.74994C26.0621 6.77306 26.5925 6.91026 27.0772 7.15264C27.5619 7.39496 27.9899 7.73696 28.3332 8.15619C28.9374 8.92856 29.2358 9.89646 29.1714 10.8749C29.1072 11.8535 28.6845 12.7739 27.9845 13.4606L26.6007 14.8443C26.4186 15.0252 26.274 15.2404 26.1753 15.4774C26.0767 15.7143 26.0259 15.9685 26.0259 16.2253C26.0259 16.482 26.0767 16.7361 26.1753 16.9732C26.274 17.2101 26.4186 17.4253 26.6007 17.6062C26.9676 17.9713 27.4641 18.1763 27.9816 18.1763C28.4993 18.1763 28.9958 17.9713 29.3626 17.6062L30.842 16.1268C32.284 14.6783 33.1016 12.7227 33.1195 10.6788C33.1373 8.63494 32.3541 6.66529 30.9376 5.19181Z" fill="white"/>
<path d="M22.8039 13.1736C22.439 13.1325 22.0699 13.1951 21.739 13.3542C21.4081 13.5134 21.1288 13.7626 20.9331 14.0734C20.7375 14.3841 20.6335 14.7438 20.6331 15.111C20.6327 15.4782 20.7359 15.8381 20.9308 16.1493C21.4099 16.8962 21.6202 17.7839 21.5271 18.6663C21.4341 19.5488 21.0432 20.3731 20.4189 21.0036L13.3426 28.0799C12.9593 28.4594 12.5014 28.7552 11.998 28.9488C11.4946 29.1425 10.9565 29.2296 10.4176 29.2049C9.87607 29.18 9.34575 29.0415 8.86115 28.7983C8.37661 28.555 7.94866 28.2125 7.60515 27.793C7.00057 27.023 6.70183 26.0566 6.76618 25.0797C6.83053 24.1028 7.25353 23.1841 7.9539 22.4999L9.33765 21.1161C9.70018 20.7471 9.90234 20.2498 9.90015 19.7324C9.90172 19.477 9.85284 19.2238 9.75631 18.9873C9.65979 18.7508 9.51748 18.5357 9.33765 18.3543C8.96662 17.9971 8.47168 17.7977 7.95671 17.7977C7.44174 17.7977 6.9468 17.9971 6.57577 18.3543L5.22578 19.6874C4.47358 20.4484 3.87913 21.3505 3.4766 22.3418C3.07406 23.3332 2.87137 24.3943 2.88016 25.4643C2.8788 26.485 3.08278 27.4955 3.47995 28.4358C3.87712 29.376 4.45936 30.2268 5.19203 30.9374C6.66442 32.3466 8.62856 33.1257 10.6666 33.1089C12.7045 33.092 14.6556 32.2807 16.1045 30.8474L23.1808 23.7655C24.4261 22.5043 25.207 20.8581 25.3961 19.0958C25.5851 17.3334 25.171 15.559 24.2214 14.0624C24.0676 13.8168 23.8602 13.6093 23.6147 13.4553C23.3692 13.3014 23.092 13.2051 22.8039 13.1736Z" fill="white"/>
</svg>
