<svg width="49" height="47" viewBox="0 0 49 47" fill="none" xmlns="http://www.w3.org/2000/svg">
<g clip-path="url(#clip0_104_10)">
<path d="M24 47C32.8366 47 40 39.8366 40 31C40 22.1634 32.8366 15 24 15C15.1634 15 8 22.1634 8 31C8 39.8366 15.1634 47 24 47Z" fill="#5C2D91"/>
<path opacity="0.1" d="M12.91 19.5C11.2835 20.9494 9.97011 22.7157 9.05037 24.6907C8.13062 26.6656 7.6239 28.8076 7.56126 30.9853C7.49861 33.163 7.88137 35.3306 8.68606 37.3551C9.49075 39.3797 10.7004 41.2186 12.2409 42.7591C13.7814 44.2996 15.6203 45.5093 17.6449 46.3139C19.6694 47.1186 21.837 47.5014 24.0147 47.4388C26.1924 47.3761 28.3344 46.8694 30.3093 45.9496C32.2843 45.0299 34.0506 43.7165 35.5 42.09L12.91 19.5Z" fill="white"/>
<path d="M11.7 33.625C11.6067 33.6265 11.514 33.6086 11.428 33.5724C11.3419 33.5363 11.2643 33.4827 11.2 33.415C11.1339 33.3497 11.0817 33.2718 11.0465 33.1859C11.0113 33.1 10.9938 33.0078 10.995 32.915C10.9943 32.8222 11.0121 32.7303 11.0473 32.6444C11.0825 32.5586 11.1344 32.4806 11.2 32.415C11.2637 32.3462 11.3411 32.2915 11.4272 32.2544C11.5133 32.2174 11.6062 32.1989 11.7 32.2C11.7936 32.1998 11.8863 32.2187 11.9723 32.2557C12.0583 32.2927 12.1358 32.3469 12.2 32.415C12.2667 32.48 12.3197 32.5578 12.3558 32.6437C12.3919 32.7296 12.4103 32.8218 12.41 32.915C12.4109 33.0082 12.3927 33.1007 12.3566 33.1867C12.3205 33.2726 12.2672 33.3503 12.2 33.415C12.1352 33.482 12.0574 33.5351 11.9715 33.5712C11.8856 33.6073 11.7932 33.6256 11.7 33.625Z" fill="white"/>
<path d="M21.635 33.5H20.325L15.64 26.23C15.5233 26.0509 15.4261 25.8598 15.35 25.66H15.31C15.3545 26.0751 15.3712 26.4927 15.36 26.91V33.5H14.295V24.385H15.68L20.24 31.525C20.43 31.8217 20.5533 32.025 20.61 32.135H20.635C20.5822 31.6904 20.5605 31.2426 20.57 30.795V24.385H21.635V33.5Z" fill="white"/>
<path d="M28.845 33.5H24V24.385H28.62V25.35H25.09V28.38H28.38V29.34H25.09V32.5H28.85L28.845 33.5Z" fill="white"/>
<path d="M36 25.35H33.35V33.5H32.285V25.35H29.665V24.385H36V25.35Z" fill="white"/>
<path d="M21.06 39.7C20.699 39.8748 20.3008 39.9589 19.9 39.945C19.6336 39.957 19.3678 39.9119 19.1203 39.8127C18.8728 39.7136 18.6494 39.5626 18.465 39.37C18.0976 38.9588 17.904 38.421 17.925 37.87C17.9115 37.5716 17.9582 37.2736 18.0621 36.9936C18.166 36.7136 18.3251 36.4573 18.53 36.24C18.7296 36.0355 18.9696 35.8747 19.2348 35.768C19.4999 35.6613 19.7843 35.6109 20.07 35.62C20.4119 35.6083 20.7524 35.6679 21.07 35.795V36.295C20.7642 36.1257 20.4194 36.0395 20.07 36.045C19.8497 36.0388 19.6306 36.0803 19.4278 36.1666C19.225 36.2529 19.0433 36.3819 18.895 36.545C18.5832 36.9002 18.4218 37.3629 18.445 37.835C18.4216 38.2822 18.5721 38.7212 18.865 39.06C19.0055 39.211 19.1769 39.3299 19.3677 39.4085C19.5584 39.487 19.7639 39.5233 19.97 39.515C20.3539 39.525 20.733 39.4281 21.065 39.235L21.06 39.7Z" fill="#F2F2F2"/>
<path d="M23.105 39.945C22.906 39.9514 22.7079 39.915 22.5241 39.8383C22.3404 39.7615 22.1753 39.6461 22.04 39.5C21.7666 39.1949 21.6247 38.7942 21.645 38.385C21.6325 38.1706 21.6628 37.9559 21.734 37.7533C21.8053 37.5508 21.9161 37.3644 22.06 37.205C22.2069 37.0616 22.3816 36.95 22.5734 36.8769C22.7652 36.8038 22.97 36.7708 23.175 36.78C23.3688 36.7697 23.5626 36.8014 23.743 36.8731C23.9233 36.9447 24.0861 37.0545 24.22 37.195C24.4858 37.5153 24.6198 37.9246 24.595 38.34C24.616 38.7616 24.4706 39.1746 24.19 39.49C24.0522 39.639 23.884 39.7567 23.6969 39.8352C23.5097 39.9136 23.3079 39.9511 23.105 39.945ZM23.14 37.21C23.0025 37.2042 22.8654 37.2295 22.739 37.2841C22.6126 37.3386 22.5002 37.421 22.41 37.525C22.2176 37.7727 22.1217 38.0819 22.14 38.395C22.1226 38.6988 22.2188 38.9983 22.41 39.235C22.5011 39.3376 22.6138 39.4186 22.7401 39.4722C22.8664 39.5258 23.003 39.5507 23.14 39.545C23.2742 39.5529 23.4084 39.53 23.5323 39.478C23.6563 39.426 23.7667 39.3463 23.855 39.245C24.0368 38.9966 24.1253 38.6921 24.105 38.385C24.1248 38.0764 24.0364 37.7705 23.855 37.52C23.7679 37.4166 23.658 37.3348 23.5339 37.281C23.4099 37.2272 23.275 37.2029 23.14 37.21Z" fill="#F2F2F2"/>
<path d="M26.93 37.36C26.822 37.2893 26.6938 37.2559 26.565 37.265C26.4643 37.2687 26.366 37.297 26.2788 37.3476C26.1916 37.3982 26.1182 37.4694 26.065 37.555C25.9162 37.7906 25.8445 38.0668 25.86 38.345V39.875H25.36V36.875H25.86V37.5C25.915 37.3066 26.0243 37.1331 26.175 37C26.3054 36.8868 26.4723 36.8247 26.645 36.825C26.7416 36.8207 26.8383 36.8342 26.93 36.865V37.36Z" fill="#F2F2F2"/>
<path d="M29.86 38.5H27.745C27.7308 38.7795 27.8218 39.0542 28 39.27C28.0927 39.3624 28.2038 39.4343 28.3262 39.4808C28.4485 39.5273 28.5793 39.5475 28.71 39.54C29.0489 39.5366 29.3768 39.4185 29.64 39.205V39.655C29.3309 39.8588 28.9648 39.9586 28.595 39.94C28.4084 39.9494 28.2221 39.9176 28.0492 39.8467C27.8764 39.7758 27.7213 39.6677 27.595 39.53C27.3347 39.2053 27.2046 38.7954 27.23 38.38C27.212 37.9636 27.3533 37.556 27.625 37.24C27.7487 37.0971 27.9025 36.9836 28.0755 36.9075C28.2484 36.8314 28.4361 36.7947 28.625 36.8C28.7955 36.7904 28.966 36.8197 29.1236 36.8855C29.2813 36.9513 29.4219 37.052 29.535 37.18C29.7652 37.4836 29.8788 37.8597 29.855 38.24L29.86 38.5ZM29.36 38.095C29.3701 37.8633 29.2994 37.6353 29.16 37.45C29.0916 37.3727 29.0066 37.3119 28.9113 37.272C28.8161 37.2322 28.7131 37.2144 28.61 37.22C28.5024 37.2187 28.3957 37.2398 28.2967 37.282C28.1977 37.3241 28.1086 37.3865 28.035 37.465C27.8704 37.6391 27.7669 37.862 27.74 38.1L29.36 38.095Z" fill="#F2F2F2"/>
</g>
<path d="M4.5 0L5.51031 3.10942H8.77975L6.13472 5.03115L7.14503 8.14058L4.5 6.21885L1.85497 8.14058L2.86528 5.03115L0.220246 3.10942H3.48969L4.5 0Z" fill="#FFC107"/>
<path d="M14.5 0L15.5103 3.10942H18.7798L16.1347 5.03115L17.145 8.14058L14.5 6.21885L11.855 8.14058L12.8653 5.03115L10.2202 3.10942H13.4897L14.5 0Z" fill="#FFC107"/>
<path d="M24.5 0L25.5103 3.10942H28.7798L26.1347 5.03115L27.145 8.14058L24.5 6.21885L21.855 8.14058L22.8653 5.03115L20.2202 3.10942H23.4897L24.5 0Z" fill="#FFC107"/>
<path d="M34.5 0L35.5103 3.10942H38.7798L36.1347 5.03115L37.145 8.14058L34.5 6.21885L31.855 8.14058L32.8653 5.03115L30.2202 3.10942H33.4897L34.5 0Z" fill="#FFC107"/>
<path d="M44.5 0L45.5103 3.10942H48.7798L46.1347 5.03115L47.145 8.14058L44.5 6.21885L41.855 8.14058L42.8653 5.03115L40.2202 3.10942H43.4897L44.5 0Z" fill="#FFC107"/>
<defs>
<clipPath id="clip0_104_10">
<rect width="32" height="32" fill="white" transform="translate(8 15)"/>
</clipPath>
</defs>
</svg>
