<svg width="36" height="36" viewBox="0 0 36 36" fill="none" xmlns="http://www.w3.org/2000/svg">
<path d="M14.1218 15.6313C14.2817 15.7115 14.4541 15.75 14.6244 15.75C14.9167 15.75 15.2045 15.6368 15.4204 15.4204C15.7632 15.0776 15.8478 14.5547 15.6313 14.1218C14.8074 12.4739 12.6139 9.89758 11.3917 8.6759L5.52823 2.81243C4.77835 2.06248 3.56237 2.06248 2.81248 2.81243C2.0626 3.56239 2.06253 4.7783 2.81241 5.52825L8.67589 11.3917C9.90031 12.6156 12.4783 14.8096 14.1218 15.6313Z" fill="white"/>
<path d="M19.3178 14.625C21.069 14.625 23.3789 15.5039 24.75 16.875V4.5C23.9062 2.95312 21.0824 2.25 19.3178 2.25H18C17.3787 2.25 16.875 2.75317 16.875 3.375V13.5C16.875 14.1218 17.3787 14.625 18 14.625H19.3178Z" fill="white"/>
<path d="M32.625 2.25H31.3072C29.5426 2.25 26.7188 2.95312 25.875 4.5V16.875C27.2461 15.5039 29.556 14.625 31.3072 14.625H32.625C33.2463 14.625 33.75 14.1218 33.75 13.5V3.375C33.75 2.75317 33.2463 2.25 32.625 2.25Z" fill="white"/>
<path d="M7.87476 18C7.25348 18 6.74976 18.5037 6.74976 19.125V20.25H13.4998V19.125C13.4998 18.5037 12.9961 18 12.3748 18H7.87476Z" fill="white"/>
<path d="M25.3125 19.125C21.2739 19.125 18 22.3989 18 26.4375C18 30.4761 21.2739 33.75 25.3125 33.75C29.3511 33.75 32.625 30.4761 32.625 26.4375C32.625 22.3989 29.3511 19.125 25.3125 19.125ZM25.5241 31.4786L25.7102 31.6648C25.9299 31.8845 25.9299 32.2405 25.7102 32.4602C25.6003 32.5701 25.4564 32.625 25.3125 32.625C25.1686 32.625 25.0247 32.5701 24.9148 32.4602L23.7898 31.3352C23.5701 31.1155 23.5701 30.7595 23.7898 30.5398L24.9148 29.4148C25.1345 29.1951 25.4905 29.1951 25.7102 29.4148C25.9299 29.6345 25.9299 29.9905 25.7102 30.2102L25.5716 30.3488C27.62 30.2125 29.25 28.5197 29.25 26.4375C29.25 24.2666 27.4834 22.5 25.3125 22.5C23.1416 22.5 21.375 24.2666 21.375 26.4375C21.375 27.1055 21.5453 27.7646 21.8672 28.3458C22.0177 28.6172 21.9194 28.96 21.648 29.1105C21.3755 29.2588 21.0333 29.1632 20.8828 28.8907C20.4686 28.1437 20.25 27.2955 20.25 26.4375C20.25 23.6459 22.5209 21.375 25.3125 21.375C28.1041 21.375 30.375 23.6459 30.375 26.4375C30.375 29.1567 28.2158 31.365 25.5241 31.4786Z" fill="white"/>
<path d="M15.7494 21.375H4.50062C3.879 21.375 3.375 21.8782 3.375 22.5C3.375 23.1218 3.879 23.625 4.50062 23.625L5.632 32.7491C5.69518 33.3193 6.17638 33.75 6.74986 33.75H7.87486V26.4375C7.87486 26.1266 8.12645 25.875 8.43736 25.875C8.74828 25.875 8.99986 26.1266 8.99986 26.4375V33.75H11.2499V26.4375C11.2499 26.1266 11.5014 25.875 11.8124 25.875C12.1233 25.875 12.3749 26.1266 12.3749 26.4375V33.75H13.4999C14.0733 33.75 14.5546 33.3193 14.6177 32.7491L15.7494 23.625C16.371 23.625 16.875 23.1218 16.875 22.5C16.875 21.8782 16.371 21.375 15.7494 21.375Z" fill="white"/>
</svg>
