<svg width="49" height="47" viewBox="0 0 49 47" fill="none" xmlns="http://www.w3.org/2000/svg">
<g clip-path="url(#clip0_104_14)">
<path d="M8.09091 15L10.9886 43.8L24 47L37.0068 43.802L39.9091 15H8.09091Z" fill="#2196F3"/>
<path d="M33.7136 24.418L33.3477 28.036L32.2432 38.882L24 40.888L23.9932 40.89L15.7545 38.882L15.1795 33.21H19.2159L19.5159 36.152L23.9955 37.216L23.9977 37.214L28.4841 36.15L29.0955 31.248L14.9864 31.282L14.5864 27.93L29.4341 27.776L29.7341 24.188L14.1886 24.226L13.9273 20.888H24H34.0727L33.7136 24.418Z" fill="#FAFAFA"/>
</g>
<path d="M4.5 0L5.51031 3.10942H8.77975L6.13472 5.03115L7.14503 8.14058L4.5 6.21885L1.85497 8.14058L2.86528 5.03115L0.220246 3.10942H3.48969L4.5 0Z" fill="#FFC107"/>
<path d="M14.5 0L15.5103 3.10942H18.7798L16.1347 5.03115L17.145 8.14058L14.5 6.21885L11.855 8.14058L12.8653 5.03115L10.2202 3.10942H13.4897L14.5 0Z" fill="#FFC107"/>
<path d="M24.5 0L25.5103 3.10942H28.7798L26.1347 5.03115L27.145 8.14058L24.5 6.21885L21.855 8.14058L22.8653 5.03115L20.2202 3.10942H23.4897L24.5 0Z" fill="#FFC107"/>
<path d="M34.5 0L35.5103 3.10942H38.7798L36.1347 5.03115L37.145 8.14058L34.5 6.21885L31.855 8.14058L32.8653 5.03115L30.2202 3.10942H33.4897L34.5 0Z" fill="#FFC107"/>
<path d="M44.5 0L45.5103 3.10942H48.7798L46.1347 5.03115L47.145 8.14058L44.5 6.21885L41.855 8.14058L42.8653 5.03115L40.2202 3.10942H43.4897L44.5 0Z" fill="#FFC107"/>
<defs>
<clipPath id="clip0_104_14">
<rect width="32" height="32" fill="white" transform="translate(8 15)"/>
</clipPath>
</defs>
</svg>
