<svg width="49" height="47" viewBox="0 0 49 47" fill="none" xmlns="http://www.w3.org/2000/svg">
<g clip-path="url(#clip0_104_7)">
<path d="M24 47C32.8367 47 40 39.8367 40 31C40 22.1633 32.8367 15 24 15C15.1633 15 8 22.1633 8 31C8 39.8367 15.1633 47 24 47Z" fill="#5C2D91"/>
<path opacity="0.1" d="M13.366 19C11.7358 20.4521 10.4195 22.2219 9.49754 24.2008C8.57562 26.1797 8.0676 28.3261 8.00463 30.5083C7.94165 32.6905 8.32505 34.8626 9.13132 36.8914C9.93758 38.9201 11.1497 40.7629 12.6934 42.3066C14.2371 43.8503 16.0799 45.0624 18.1086 45.8687C20.1374 46.6749 22.3095 47.0583 24.4917 46.9954C26.6739 46.9324 28.8203 46.4244 30.7992 45.5025C32.7781 44.5805 34.5479 43.2642 36 41.634L13.366 19Z" fill="white"/>
<path d="M12.0887 35.342C11.9966 35.3435 11.9053 35.3259 11.8203 35.2904C11.7354 35.2548 11.6588 35.202 11.5953 35.1353C11.5302 35.0709 11.4787 34.9941 11.444 34.9093C11.4093 34.8245 11.392 34.7336 11.3933 34.642C11.3926 34.5505 11.4101 34.4598 11.4448 34.3751C11.4795 34.2904 11.5307 34.2134 11.5953 34.1487C11.6581 34.0808 11.7345 34.0268 11.8195 33.9903C11.9045 33.9538 11.9962 33.9355 12.0887 33.9367C12.181 33.9364 12.2725 33.9551 12.3573 33.9915C12.4422 34.028 12.5186 34.0815 12.582 34.1487C12.6478 34.2128 12.6999 34.2896 12.7354 34.3743C12.771 34.4591 12.789 34.5501 12.7887 34.642C12.7896 34.734 12.7718 34.8252 12.7363 34.91C12.7007 34.9948 12.6482 35.0715 12.582 35.1353C12.518 35.2013 12.4413 35.2537 12.3565 35.2892C12.2717 35.3247 12.1806 35.3427 12.0887 35.342ZM21.8867 35.2187H20.5953L15.9747 28.0487C15.8595 27.8718 15.7634 27.6832 15.688 27.486H15.6487C15.6927 27.8953 15.7093 28.3073 15.698 28.7193V35.2187H14.648V26.2287H16.014L20.5113 33.2707C20.6987 33.5633 20.82 33.764 20.876 33.8727H20.9007C20.8487 33.434 20.8273 32.9927 20.8367 32.5507V26.2287H21.8873L21.8867 35.2187ZM28.998 35.2187H24.22V26.2287H28.7767V27.1807H25.2953V30.1687H28.54V31.1153H25.2953V34.2327H29.004L28.998 35.2187ZM36.0547 27.18H33.4413V35.2187H32.3907V27.18H29.8067V26.228H36.0547V27.18Z" fill="white"/>
</g>
<path d="M4.5 0L5.51031 3.10942H8.77975L6.13472 5.03115L7.14503 8.14058L4.5 6.21885L1.85497 8.14058L2.86528 5.03115L0.220246 3.10942H3.48969L4.5 0Z" fill="#FFC107"/>
<path d="M14.5 0L15.5103 3.10942H18.7798L16.1347 5.03115L17.145 8.14058L14.5 6.21885L11.855 8.14058L12.8653 5.03115L10.2202 3.10942H13.4897L14.5 0Z" fill="#FFC107"/>
<path d="M24.5 0L25.5103 3.10942H28.7798L26.1347 5.03115L27.145 8.14058L24.5 6.21885L21.855 8.14058L22.8653 5.03115L20.2202 3.10942H23.4897L24.5 0Z" fill="#FFC107"/>
<path d="M34.5 0L35.5103 3.10942H38.7798L36.1347 5.03115L37.145 8.14058L34.5 6.21885L31.855 8.14058L32.8653 5.03115L30.2202 3.10942H33.4897L34.5 0Z" fill="#FFC107"/>
<path d="M44.5 0L45.5103 3.10942H48.7798L46.1347 5.03115L47.145 8.14058L44.5 6.21885L41.855 8.14058L42.8653 5.03115L40.2202 3.10942H43.4897L44.5 0Z" fill="#FFC107"/>
<defs>
<clipPath id="clip0_104_7">
<rect width="32" height="32" fill="white" transform="translate(8 15)"/>
</clipPath>
</defs>
</svg>
