<svg width="49" height="52" viewBox="0 0 32 52" fill="none" xmlns="http://www.w3.org/2000/svg">
<g clip-path="url(#clip0_104_12)">
<path d="M0 36C0 27.1635 7.16347 20 16 20C24.8365 20 32 27.1635 32 36C32 44.8365 24.8365 52 16 52C7.16347 52 0 44.8365 0 36Z" fill="#333333"/>
<path d="M12.8 45.5999C14.5673 45.5999 16 44.1673 16 42.3999V39.1999H12.8C11.0327 39.1999 9.60001 40.6327 9.60001 42.3999C9.60001 44.1673 11.0327 45.5999 12.8 45.5999Z" fill="#0ACF83"/>
<path d="M9.60001 36C9.60001 34.2327 11.0327 32.8 12.8 32.8H16V39.2H12.8C11.0327 39.2 9.60001 37.7673 9.60001 36Z" fill="#A259FF"/>
<path d="M9.60001 29.6C9.60001 27.8327 11.0327 26.4 12.8 26.4H16V32.8H12.8C11.0327 32.8 9.60001 31.3673 9.60001 29.6Z" fill="#F24E1E"/>
<path d="M16 26.4H19.2C20.9673 26.4 22.4 27.8327 22.4 29.6C22.4 31.3673 20.9673 32.8 19.2 32.8H16V26.4Z" fill="#FF7262"/>
<path d="M22.4 36C22.4 37.7673 20.9673 39.2 19.2 39.2C17.4327 39.2 16 37.7673 16 36C16 34.2327 17.4327 32.8 19.2 32.8C20.9673 32.8 22.4 34.2327 22.4 36Z" fill="#1ABCFE"/>
</g>
<path d="M5.5 0L6.51031 3.10942H9.77975L7.13472 5.03115L8.14503 8.14058L5.5 6.21885L2.85497 8.14058L3.86528 5.03115L1.22025 3.10942H4.48969L5.5 0Z" fill="#FFC107"/>
<path d="M15.5 0L16.5103 3.10942H19.7798L17.1347 5.03115L18.145 8.14058L15.5 6.21885L12.855 8.14058L13.8653 5.03115L11.2202 3.10942H14.4897L15.5 0Z" fill="#FFC107"/>
<path d="M25.5 0L26.5103 3.10942H29.7798L27.1347 5.03115L28.145 8.14058L25.5 6.21885L22.855 8.14058L23.8653 5.03115L21.2202 3.10942H24.4897L25.5 0Z" fill="#FFC107"/>
<defs>
<clipPath id="clip0_104_12">
<rect width="32" height="32" fill="white" transform="translate(0 20)"/>
</clipPath>
</defs>
</svg>
