<svg width="49" height="48" viewBox="0 0 49 48" fill="none" xmlns="http://www.w3.org/2000/svg">
<path d="M39.3964 30.5742L25.4247 16.6036C24.6207 15.7988 23.3156 15.7988 22.5105 16.6036L19.6093 19.5048L23.2896 23.1851C24.1449 22.8961 25.1256 23.0899 25.8074 23.7718C26.4924 24.4579 26.6848 25.4469 26.3889 26.3051L29.9357 29.852C30.7939 29.5563 31.784 29.7477 32.4693 30.4341C33.4272 31.3916 33.4272 32.9435 32.4693 33.9016C31.5112 34.8598 29.9593 34.8598 29.0007 33.9016C28.2803 33.1805 28.1023 32.1222 28.4671 31.2346L25.1593 27.9268L25.1589 36.6315C25.3924 36.7474 25.6129 36.9015 25.8074 37.0953C26.7652 38.0528 26.7652 39.6047 25.8074 40.5636C24.8492 41.5214 23.2966 41.5214 22.3399 40.5636C21.382 39.6047 21.382 38.0528 22.3399 37.0953C22.5765 36.859 22.8504 36.6803 23.1425 36.5602V27.7744C22.8504 27.6551 22.5769 27.4774 22.3399 27.2394C21.6141 26.5147 21.4396 25.4498 21.8115 24.5586L18.1838 20.9303L8.60382 30.5096C7.79873 31.315 7.79873 32.6201 8.60382 33.4248L22.5755 47.3958C23.3799 48.2006 24.6846 48.2006 25.49 47.3958L39.3964 33.4898C40.2011 32.6847 40.2011 31.3789 39.3964 30.5742Z" fill="#DE4C36"/>
<path d="M4.5 0L5.51031 3.10942H8.77975L6.13472 5.03115L7.14503 8.14058L4.5 6.21885L1.85497 8.14058L2.86528 5.03115L0.220246 3.10942H3.48969L4.5 0Z" fill="#FFC107"/>
<path d="M14.5 0L15.5103 3.10942H18.7798L16.1347 5.03115L17.145 8.14058L14.5 6.21885L11.855 8.14058L12.8653 5.03115L10.2202 3.10942H13.4897L14.5 0Z" fill="#FFC107"/>
<path d="M24.5 0L25.5103 3.10942H28.7798L26.1347 5.03115L27.145 8.14058L24.5 6.21885L21.855 8.14058L22.8653 5.03115L20.2202 3.10942H23.4897L24.5 0Z" fill="#FFC107"/>
<path d="M34.5 0L35.5103 3.10942H38.7798L36.1347 5.03115L37.145 8.14058L34.5 6.21885L31.855 8.14058L32.8653 5.03115L30.2202 3.10942H33.4897L34.5 0Z" fill="#FFC107"/>
<path d="M44.5 0L45.5103 3.10942H48.7798L46.1347 5.03115L47.145 8.14058L44.5 6.21885L41.855 8.14058L42.8653 5.03115L40.2202 3.10942H43.4897L44.5 0Z" fill="#FFC107"/>
</svg>
