<svg width="49" height="47" viewBox="0 0 49 47" fill="none" xmlns="http://www.w3.org/2000/svg">
<g clip-path="url(#clip0_104_2)">
<path d="M35.2 15H12.8C10.149 15 8 17.149 8 19.8V42.2C8 44.851 10.149 47 12.8 47H35.2C37.851 47 40 44.851 40 42.2V19.8C40 17.149 37.851 15 35.2 15Z" fill="#F7DF1E"/>
<path d="M28.25 38.125C28.875 39.1875 29.75 39.9375 31.1875 39.9375C32.4375 39.9375 33.25 39.3125 33.25 38.4375C33.25 37.4375 32.4375 37.0625 31.0625 36.4375L30.3125 36.125C28.125 35.1875 26.6875 34.0625 26.6875 31.625C26.6875 29.375 28.375 27.625 31.0625 27.625C33 27.625 34.375 28.3125 35.3125 30.0625L33 31.5625C32.5 30.625 31.9375 30.25 31.0625 30.25C30.1875 30.25 29.625 30.8125 29.625 31.5625C29.625 32.4375 30.1875 32.8125 31.5 33.375L32.25 33.6875C34.8125 34.8125 36.25 35.875 36.25 38.4375C36.25 41.125 34.125 42.625 31.25 42.625C28.4375 42.625 26.625 41.3125 25.75 39.5625L28.25 38.125ZM17.625 38.375C18.125 39.1875 18.5 39.9375 19.5625 39.9375C20.5625 39.9375 21.1875 39.5625 21.1875 38.0625V27.6875H24.1875V37.9375C24.1875 41.0625 22.375 42.4375 19.6875 42.4375C17.25 42.4375 15.875 41.1875 15.1875 39.6875L17.625 38.375Z" fill="black"/>
</g>
<path d="M4.5 0L5.51031 3.10942H8.77975L6.13472 5.03115L7.14503 8.14058L4.5 6.21885L1.85497 8.14058L2.86528 5.03115L0.220246 3.10942H3.48969L4.5 0Z" fill="#FFC107"/>
<path d="M14.5 0L15.5103 3.10942H18.7798L16.1347 5.03115L17.145 8.14058L14.5 6.21885L11.855 8.14058L12.8653 5.03115L10.2202 3.10942H13.4897L14.5 0Z" fill="#FFC107"/>
<path d="M24.5 0L25.5103 3.10942H28.7798L26.1347 5.03115L27.145 8.14058L24.5 6.21885L21.855 8.14058L22.8653 5.03115L20.2202 3.10942H23.4897L24.5 0Z" fill="#FFC107"/>
<path d="M34.5 0L35.5103 3.10942H38.7798L36.1347 5.03115L37.145 8.14058L34.5 6.21885L31.855 8.14058L32.8653 5.03115L30.2202 3.10942H33.4897L34.5 0Z" fill="#FFC107"/>
<path d="M44.5 0L45.5103 3.10942H48.7798L46.1347 5.03115L47.145 8.14058L44.5 6.21885L41.855 8.14058L42.8653 5.03115L40.2202 3.10942H43.4897L44.5 0Z" fill="#FFC107"/>
<defs>
<clipPath id="clip0_104_2">
<rect width="32" height="32" fill="white" transform="translate(8 15)"/>
</clipPath>
</defs>
</svg>
