<svg width="28" height="28" viewBox="0 0 40 40" fill="none" xmlns="http://www.w3.org/2000/svg">
<path d="M28.109 34.4C27.759 34.4 27.474 34.116 27.474 33.766V24.13C27.474 20.646 25.686 20.646 25.012 20.646C23.134 20.646 22.183 21.818 22.183 24.13V33.767C22.183 34.117 21.899 34.401 21.549 34.401H16.1C15.75 34.401 15.466 34.117 15.466 33.767V15.41C15.466 15.06 15.75 14.776 16.1 14.776H21.55C21.9 14.776 22.184 15.06 22.184 15.41V16.094L22.512 15.823C23.802 14.756 25.341 14.215 27.086 14.215C29.243 14.215 31.059 14.904 32.337 16.209C33.687 17.587 34.4 19.639 34.4 22.142V33.767C34.4 34.117 34.115 34.401 33.765 34.401L28.109 34.4ZM25.013 19.376C26.407 19.376 28.745 19.994 28.745 24.13V33.132H33.13V22.142C33.13 17.911 30.927 15.485 27.086 15.485C23.656 15.485 22.17 18.075 22.108 18.185C21.996 18.388 21.784 18.514 21.553 18.514C21.501 18.514 21.448 18.506 21.394 18.493C21.112 18.422 20.915 18.171 20.915 17.883V16.046H16.735V33.133H20.915V24.13C20.915 21.153 22.447 19.376 25.013 19.376Z" fill="white"/>
<path d="M6.78002 34.4C6.43002 34.4 6.14502 34.116 6.14502 33.766V15.41C6.14502 15.06 6.43002 14.776 6.78002 14.776H12.465C12.815 14.776 13.099 15.06 13.099 15.41V33.766C13.099 34.116 12.815 34.4 12.465 34.4H6.78002ZM7.41502 33.132H11.83V16.045H7.41502V33.132Z" fill="white"/>
<path d="M9.59701 13.639C7.39301 13.639 5.60001 11.836 5.60001 9.62001C5.60001 7.40301 7.39301 5.60001 9.59701 5.60001C11.798 5.60001 13.59 7.40401 13.59 9.62101C13.59 11.836 11.798 13.639 9.59701 13.639ZM9.59701 6.86601C8.09301 6.86601 6.87001 8.10101 6.87001 9.62001C6.87001 11.138 8.09301 12.371 9.59701 12.371C11.1 12.371 12.322 11.138 12.322 9.62001C12.321 8.10201 11.1 6.86601 9.59701 6.86601Z" fill="white"/>
</svg>
