<svg width="39" height="47" viewBox="0 0 39 47" fill="none" xmlns="http://www.w3.org/2000/svg">
<g clip-path="url(#clip0_104_8)">
<path d="M14.5758 24.1579L14.6768 26.1754L13.0606 28.807L10.5354 33.1053L10.0303 36.7018L11.8485 41.7895L15.9899 43.807H22.2525L28.1111 39.9474L30.7374 33.8947L24.6768 27.4912L22.9596 23.8947L14.5758 24.1579Z" fill="#ECEFF1"/>
<path d="M28.9192 29.1579C27.303 27.1404 25.9899 25.9123 25.2828 23.3684C24.5758 20.8246 25.4848 21.5263 24.8788 19.3333C24.5758 18.193 24.0707 17.4035 23.5657 16.7895C22.9596 16.1754 22.2525 15.8246 21.8485 15.7368C20.9394 15.2982 18.8182 14.5965 16.1919 15.8246C13.4646 17.0526 13.7677 19.6842 14.2727 25.0351C14.2727 25.386 14.1717 25.8246 13.9697 26.1754C13.5657 26.9649 12.8586 27.6667 12.2525 28.2807C11.5455 29.1579 10.8384 30.0351 10.3333 31C9.12121 33.0175 8.0101 35.5614 8.31313 36.5263C8.81818 36.4386 15.1818 44.8596 15.1818 45.0351C15.5859 44.9474 17.303 44.9474 18.8182 44.9474C20.9394 44.8596 22.1515 44.7719 23.8687 45.1228C23.8687 44.8596 23.7677 44.5965 23.7677 44.3333C23.7677 43.807 23.8687 43.3684 23.9697 42.7544C24.0707 42.3158 24.1717 41.8772 24.2727 41.3509C23.2626 42.1404 21.4444 43.0175 19.7273 43.2807C18.2121 43.5439 15.6869 43.1053 14.4747 41.7895C14.5758 41.7895 14.7778 41.7895 14.8788 41.7018C15.1818 41.614 15.4848 41.5263 15.5859 41.3509C15.8889 40.9123 15.6869 40.4737 15.4848 40.2105C15.2828 39.9474 13.7677 38.9825 13.0606 38.4561C12.3535 37.9298 11.9495 37.6667 11.5455 37.3158C11.5455 37.3158 10.9394 36.7895 10.7374 36.614C10.5354 36.4386 10.4343 36.2632 10.3333 36.1754C10.1313 35.7368 10.0303 35.2105 10.1313 34.5088C10.2323 33.5439 10.6364 32.7544 11.1414 31.8772C11.3434 31.5263 11.8485 30.8246 11.8485 30.8246C11.8485 30.8246 10.1313 34.5088 11.0404 35.6491C11.0404 35.6491 11.1414 34.5088 11.5455 33.3684C11.8485 32.5789 12.3535 31.4386 12.9596 30.8246C13.5657 30.2105 15.0808 27.9298 15.1818 26.5263C15.1818 25.9123 15.2828 25.2982 15.2828 24.8596C14.8788 24.5088 21.9495 23.6316 22.3535 24.5965C22.4545 24.9474 23.8687 28.1053 24.6768 29.7719C25.0808 30.5614 25.5859 31.2632 25.8889 32.1404C26.1919 33.1053 26.3939 34.4211 26.3939 35.7368C26.3939 36 26.3939 36.4386 26.2929 36.8772C26.495 36.8772 30.4343 33.193 25.7879 30.1228C25.7879 30.1228 28.6162 31.2632 28.7172 33.5439C28.8182 35.386 27.9091 36.8772 27.7071 37.1404C27.8081 37.1404 29.8283 37.9298 29.9293 37.9298C30.3333 37.9298 31.1414 37.6667 31.1414 37.6667C31.2424 37.4035 31.5455 36.7018 31.5455 36.4386C32.2525 34.4211 30.5354 31.1754 28.9192 29.1579Z" fill="#263238"/>
<path d="M16.0909 23.3684C16.8161 23.3684 17.404 22.583 17.404 21.614C17.404 20.6451 16.8161 19.8596 16.0909 19.8596C15.3657 19.8596 14.7778 20.6451 14.7778 21.614C14.7778 22.583 15.3657 23.3684 16.0909 23.3684Z" fill="#ECEFF1"/>
<path d="M20.6364 23.5439C21.5847 23.5439 22.3535 22.6406 22.3535 21.5263C22.3535 20.4121 21.5847 19.5088 20.6364 19.5088C19.688 19.5088 18.9192 20.4121 18.9192 21.5263C18.9192 22.6406 19.688 23.5439 20.6364 23.5439Z" fill="#ECEFF1"/>
<path d="M16.8245 21.7341C16.7405 21.1573 16.3584 20.7242 15.971 20.7668C15.5836 20.8093 15.3375 21.3113 15.4215 21.8881C15.5054 22.4648 15.8876 22.8979 16.275 22.8554C16.6624 22.8129 16.9084 22.3108 16.8245 21.7341Z" fill="#212121"/>
<path d="M20.5353 23.0175C21.0932 23.0175 21.5454 22.507 21.5454 21.8772C21.5454 21.2474 21.0932 20.7368 20.5353 20.7368C19.9775 20.7368 19.5252 21.2474 19.5252 21.8772C19.5252 22.507 19.9775 23.0175 20.5353 23.0175Z" fill="#212121"/>
<path d="M33.9697 41.1754C33.5656 41 32.8586 40.7368 32.2525 39.9474C31.9495 39.5088 32.0505 38.2807 31.5454 37.7544C31.2424 37.4035 30.8384 37.5789 30.7374 37.5789C29.8283 37.7544 27.7071 38.9825 26.2929 37.5789C26.0909 37.4035 25.7879 37.1404 25.2828 37.1404C24.7778 37.1404 24.5757 37.3158 24.3737 37.6667C24.1717 38.0175 24.1717 38.2807 24.1717 39.1579C24.1717 39.8596 24.1717 40.6491 24.0707 41.2632C23.8687 42.7544 23.5656 43.6316 23.5656 44.5088C23.5656 45.4737 23.8687 46.0877 24.2727 46.3509C24.5757 46.614 25.0808 46.7895 26.1919 46.7895C27.303 46.7895 28.0101 46.4386 28.7172 45.8246C29.2222 45.386 29.6263 45.2105 31.0404 44.3333C32.1515 43.7193 33.8687 42.9298 34.1717 42.6667C34.3737 42.4912 34.6768 42.4035 34.6768 41.8772C34.6768 41.4386 34.2727 41.2632 33.9697 41.1754Z" fill="#FFC107"/>
<path d="M13.6667 41.4386C12.6566 40.0351 12.5555 39.7719 11.8485 38.8947C11.2424 38.0175 9.92929 36.3509 9.12121 36.3509C8.51515 36.3509 8.21211 36.614 7.80807 36.9649C7.40403 37.3158 6.99999 38.1053 6.29292 38.5439C5.68686 38.9825 3.96969 38.8947 3.56565 39.4211C3.16161 39.9474 3.96969 40.7368 3.96969 42.0526C3.96969 42.5789 3.46464 42.9298 3.36363 43.2807C3.26262 43.7193 3.16161 43.9825 3.36363 44.3333C3.76767 44.8596 4.27272 45.0351 7.70706 45.6491C9.52525 46 11.2424 46.8772 12.3535 46.9649C13.4646 47.0526 15.3838 46.9649 15.3838 44.5965C15.4848 43.193 14.5758 42.8421 13.6667 41.4386Z" fill="#FFC107"/>
<path d="M15.5858 25.5614C14.9798 25.2105 14.4747 24.8597 14.4747 24.3333C14.4747 23.807 14.8788 23.6316 15.4848 23.193C15.5858 23.1053 16.697 22.2281 17.8081 22.2281C18.9192 22.2281 20.2323 22.8421 20.7374 23.0175C21.6464 23.193 22.5555 23.3684 22.4545 23.9825C22.3535 24.8597 22.2525 25.0351 21.2424 25.4737C20.5353 25.6491 19.2222 26.614 18.3131 26.614C17.9091 26.614 17.303 26.614 16.899 26.5263C16.5959 26.4386 16.0909 26 15.5858 25.5614Z" fill="#FFC107"/>
<path d="M15.3838 24.8596C15.5858 25.0351 15.8889 25.2105 16.1919 25.2982C16.3939 25.386 16.697 25.4737 16.697 25.4737C17.101 25.4737 17.404 25.4737 17.606 25.4737C18.1111 25.4737 18.8182 25.2982 19.5252 24.9474C20.2323 24.6842 20.3333 24.5088 20.8384 24.3333C21.3434 24.0702 21.8485 23.807 21.6465 23.7193C21.4444 23.6316 21.2424 23.7193 20.5353 24.0702C19.9293 24.4211 19.4242 24.5965 18.8182 24.8596C18.5151 24.9474 18.1111 25.1228 17.8081 25.1228C17.505 25.1228 17.202 25.1228 16.899 25.1228C16.5959 25.1228 16.3939 25.0351 16.0909 24.9474C15.8889 24.8596 15.7879 24.7719 15.6869 24.7719C15.4848 24.6842 15.0808 24.3333 14.8788 24.2456C14.8788 24.2456 14.6768 24.2456 14.7778 24.3333C15.0808 24.5965 15.1818 24.6842 15.3838 24.8596Z" fill="#634703"/>
<path d="M18.4141 22.9298C18.5151 23.1053 18.7172 23.1053 18.8182 23.193C18.9192 23.2807 19.0202 23.2807 19.0202 23.2807C19.1212 23.193 19.0202 23.0175 18.9192 23.0175C18.9192 22.8421 18.4141 22.8421 18.4141 22.9298Z" fill="#634703"/>
<path d="M16.798 23.1053C16.798 23.193 17 23.2807 17 23.193C17.101 23.1053 17.202 23.0175 17.303 23.0175C17.505 22.9298 17.404 22.8421 17.101 22.8421C16.899 22.9298 16.899 23.0175 16.798 23.1053Z" fill="#634703"/>
<path d="M26.596 38.6316C26.596 38.7193 26.596 38.807 26.596 38.8947C26.798 39.2456 27.303 39.3333 27.7071 39.3333C28.3131 39.3333 28.9192 38.9825 29.2222 38.6316C29.2222 38.5439 29.3232 38.4561 29.4242 38.3684C29.6263 38.1053 29.7273 37.9298 29.8283 37.8421C29.8283 37.8421 29.7273 37.7544 29.7273 37.6667C29.6263 37.4912 29.3232 37.3158 28.9192 37.2281C28.6162 37.1404 28.1111 37.0526 27.9091 37.0526C27 36.9649 26.495 37.2281 26.1919 37.4912C26.1919 37.4912 26.2929 37.4912 26.2929 37.579C26.495 37.7544 26.596 37.9298 26.596 38.193C26.697 38.3684 26.596 38.4561 26.596 38.6316Z" fill="#455A64"/>
</g>
<path d="M4.5 0L5.51031 3.10942H8.77975L6.13472 5.03115L7.14503 8.14058L4.5 6.21885L1.85497 8.14058L2.86528 5.03115L0.220246 3.10942H3.48969L4.5 0Z" fill="#FFC107"/>
<path d="M14.5 0L15.5103 3.10942H18.7798L16.1347 5.03115L17.145 8.14058L14.5 6.21885L11.855 8.14058L12.8653 5.03115L10.2202 3.10942H13.4897L14.5 0Z" fill="#FFC107"/>
<path d="M24.5 0L25.5103 3.10942H28.7798L26.1347 5.03115L27.145 8.14058L24.5 6.21885L21.855 8.14058L22.8653 5.03115L20.2202 3.10942H23.4897L24.5 0Z" fill="#FFC107"/>
<path d="M34.5 0L35.5103 3.10942H38.7798L36.1347 5.03115L37.145 8.14058L34.5 6.21885L31.855 8.14058L32.8653 5.03115L30.2202 3.10942H33.4897L34.5 0Z" fill="#FFC107"/>
<defs>
<clipPath id="clip0_104_8">
<rect width="32" height="32" fill="white" transform="translate(3 15)"/>
</clipPath>
</defs>
</svg>
