<svg version="1.1" id="Icons" xmlns="http://www.w3.org/2000/svg" xmlns:xlink="http://www.w3.org/1999/xlink" x="0px" y="0px" viewBox="0 0 32 32" style="enable-background:new 0 0 32 32;" xml:space="preserve">
<style type="text/css">
	.st0{fill:none;stroke:#000000;stroke-width:2;stroke-linecap:round;stroke-linejoin:round;stroke-miterlimit:10;}
	.st1{fill:none;stroke:#000000;stroke-width:2;stroke-linejoin:round;stroke-miterlimit:10;}
</style>
<path class="st0" d="M19,23v4c0,1.1-0.9,2-2,2H7c-1.1,0-2-0.9-2-2V5c0-1.1,0.9-2,2-2h10c1.1,0,2,0.9,2,2v2" id="id_101" style="stroke: rgb(252, 255, 255);"></path>
<line class="st0" x1="5" y1="7" x2="19" y2="7" id="id_102" style="stroke: rgb(255, 255, 255);"></line>
<line class="st0" x1="5" y1="23" x2="19" y2="23" id="id_103" style="stroke: rgb(255, 255, 255);"></line>
<line class="st0" x1="11" y1="26" x2="13" y2="26" id="id_104" style="stroke: rgb(255, 255, 255);"></line>
<polyline class="st0" points="14,12 11,15 14,18 " id="id_105" style="stroke: rgb(255, 255, 255);"></polyline>
<polyline class="st0" points="24,12 27,15 24,18 " id="id_106" style="stroke: rgb(255, 255, 255);"></polyline>
<line class="st0" x1="21" y1="11" x2="17" y2="19" id="id_107" style="stroke: rgb(255, 255, 255);"></line>
</svg>