<svg width="36" height="36" viewBox="0 0 36 36" fill="none" xmlns="http://www.w3.org/2000/svg">
<path fill-rule="evenodd" clip-rule="evenodd" d="M24 34.125C26.277 34.125 28.125 32.277 28.125 30V6C28.125 3.723 26.277 1.875 24 1.875H12C9.723 1.875 7.875 3.723 7.875 6V30C7.875 32.277 9.723 34.125 12 34.125H24ZM24 31.875H12C10.965 31.875 10.125 31.035 10.125 30V6C10.125 4.965 10.965 4.125 12 4.125H24C25.035 4.125 25.875 4.965 25.875 6V30C25.875 31.035 25.035 31.875 24 31.875Z" fill="white"/>
<path fill-rule="evenodd" clip-rule="evenodd" d="M15 5.625H21C21.621 5.625 22.125 5.121 22.125 4.5C22.125 3.879 21.621 3.375 21 3.375H15C14.379 3.375 13.875 3.879 13.875 4.5C13.875 5.121 14.379 5.625 15 5.625Z" fill="white"/>
</svg>
