<svg width="39" height="47" viewBox="0 0 39 47" fill="none" xmlns="http://www.w3.org/2000/svg">
<g clip-path="url(#clip0_104_5)">
<path d="M3.08676 43.8682H4.13571V35.9064L5.78147 42.8297C5.96233 43.6605 6.23361 43.9721 6.75808 43.9721C7.28255 43.9721 7.51766 43.6605 7.7166 42.8297L9.34428 35.9064V43.8682H10.3932V35.9064C10.3932 35.1448 10.2305 34.764 9.88684 34.5563C9.09108 34.1063 8.54852 34.4871 8.31342 35.5256L6.72191 42.3797L5.16657 35.5256C4.93146 34.4871 4.3889 34.1063 3.59315 34.5563C3.24953 34.764 3.08676 35.1102 3.08676 35.9064V43.8682Z" fill="#00678F"/>
<path d="M11.2613 37.3949H12.3103V41.7566C12.3103 41.9989 12.3464 42.5528 12.9252 42.5874C13.2326 42.5874 15.2039 42.5874 15.222 42.5874V37.3603H16.271C16.271 37.3603 16.271 44.4913 16.271 44.5259C16.271 46.2914 15.1316 46.6722 14.6071 46.6722H11.2975V45.3221H14.6252C15.2943 45.1837 15.222 44.5259 15.222 44.3182V43.799H12.9794C11.9305 43.799 11.2613 42.899 11.2613 41.8951C11.2613 41.7912 11.2975 37.4295 11.2613 37.3949Z" fill="#00678F"/>
<path d="M33.9403 32.3063C33.2892 32.2716 32.8009 32.4101 32.3669 32.7217C32.2403 32.8255 32.0594 32.8255 32.0413 33.1024C32.1137 33.2409 32.1137 33.414 32.1679 33.5871C32.2584 33.8986 32.4392 34.314 32.5839 34.5217C32.7467 34.764 32.9275 35.0064 33.1084 35.2487C33.4158 35.6295 33.7775 35.8372 34.085 36.2179C34.2658 36.4256 34.4467 36.7026 34.6094 36.9449C34.6999 37.0834 34.7541 37.2564 34.8626 37.3603V37.3257C34.8084 37.1872 34.7903 36.9795 34.736 36.841C34.6637 36.7026 34.5733 36.5641 34.5009 36.391C34.2658 35.8025 33.9765 35.2487 33.669 34.8333C33.4158 34.4871 32.8371 34.0371 32.7467 33.4486C32.7467 33.4486 32.7467 33.4486 32.7286 33.414C32.9094 33.3794 33.1084 33.2755 33.2892 33.1717C33.5605 33.0332 33.8137 33.0678 34.1031 32.9294C34.2297 32.8601 34.3563 32.7909 34.4829 32.7217C34.4829 32.687 34.4829 32.6178 34.4829 32.5832C34.3382 32.3063 34.2297 31.9255 34.085 31.6832C33.669 30.9908 33.2169 30.3331 32.7467 29.7792C32.4935 29.4677 32.1679 29.26 31.9147 29.0177C31.8243 28.9138 31.6615 28.8792 31.6073 28.7407C31.4626 28.3946 31.3722 27.9446 31.2818 27.5638C31.0466 26.6984 30.8296 25.7637 30.6126 24.8637C30.4679 24.2752 30.3775 23.6521 30.1966 23.0982C29.3647 20.4674 28.4604 18.875 27.0679 17.3172C26.7604 17.0057 26.4168 16.8672 26.037 16.6941C25.8381 16.6941 25.6391 16.6595 25.4402 16.6249C25.3136 16.5211 25.187 16.2095 25.0604 16.071C24.6083 15.5172 23.4146 14.3056 23.071 15.898C22.854 16.9018 23.3966 17.9057 23.5774 18.3904C23.7221 18.7365 23.8849 19.1519 23.9934 19.5327C24.0476 19.8096 24.0657 20.0866 24.12 20.3635C24.2466 21.0558 24.3732 21.7828 24.5359 22.4405C24.6264 22.7521 24.7168 23.0982 24.8434 23.4098C24.9157 23.5829 25.0242 23.6521 25.0423 23.929C24.9338 24.2406 24.9157 24.6906 24.8615 25.0714C24.5721 26.8022 24.6806 28.9831 25.0966 30.2639C25.2232 30.6447 25.5306 31.5101 25.9466 31.1639C26.3083 30.887 26.236 30.0216 26.3264 29.2254C26.3445 29.0523 26.3264 28.9138 26.3806 28.81V28.8446C26.4891 29.26 26.5977 29.71 26.7062 30.1254C26.9594 30.887 27.3934 31.6832 27.7551 32.2024C27.9541 32.4793 28.0987 32.964 28.3519 33.1371V33.1024C28.3519 33.1024 28.3519 33.1024 28.3338 33.1024C28.2796 32.964 28.2073 32.8947 28.153 32.7909C28.0083 32.514 27.8455 32.1678 27.737 31.8562C27.3934 30.9908 27.104 30.0216 26.8328 29.0523C26.7062 28.5677 26.5977 28.0484 26.4891 27.5638C26.4349 27.3907 26.4349 27.1138 26.3625 27.0099C26.2359 27.3561 26.0551 27.633 25.9828 28.0484C25.8381 28.7061 25.82 29.5369 25.7657 30.3677C25.7296 30.3677 25.7476 30.3677 25.7296 30.4023C25.4764 30.2639 25.3859 29.7792 25.2774 29.3292C25.0423 28.2215 24.9881 26.456 25.2051 25.2098C25.2593 24.8983 25.5125 23.8598 25.404 23.5482C25.3498 23.2713 25.187 23.0982 25.0966 22.8559C24.9881 22.579 24.8796 22.1982 24.8072 21.852C24.6083 20.9866 24.5178 20.0173 24.3008 19.1519C24.2104 18.7365 24.0295 18.3211 23.9029 17.975C23.7583 17.5596 23.5774 17.248 23.4508 16.7634C23.4146 16.5903 23.3604 16.3134 23.4146 16.1403C23.4327 16.0018 23.4689 15.9672 23.5232 15.9326C23.6317 15.7595 23.921 15.9672 24.0295 16.071C24.337 16.3134 24.5721 16.5211 24.8253 16.8326C24.9338 16.9711 25.0604 17.2826 25.2051 17.3519C25.2593 17.3519 25.3136 17.3519 25.3679 17.3519C25.6211 17.4557 25.9104 17.3865 26.1636 17.5249C26.5977 17.8019 26.9774 18.1827 27.3211 18.5981C28.37 19.8789 29.2562 21.7136 29.8349 23.8944C29.9254 24.2406 29.9796 24.5867 30.052 24.9329C30.2147 25.6945 30.4317 26.456 30.5945 27.2176C30.7573 27.9446 30.92 28.6715 31.1732 29.2946C31.2998 29.6062 31.7701 29.7792 32.0052 29.9523C32.1679 30.0908 32.4211 30.2293 32.5658 30.3677C32.8371 30.6793 33.1084 31.0601 33.3796 31.4062C33.5062 31.6139 33.9222 31.9947 33.9403 32.3063Z" fill="#00678F"/>
<path d="M25.7115 18.9096C25.5668 18.9096 25.4764 18.9442 25.3859 18.9788C25.3859 18.9788 25.3859 18.9788 25.3859 19.0135C25.3859 19.0135 25.3859 19.0135 25.404 19.0135C25.4764 19.2558 25.5849 19.4289 25.6572 19.6366C25.7296 19.8789 25.7838 20.1212 25.8381 20.3635L25.8562 20.3289C25.9647 20.1904 26.0189 19.9135 26.0189 19.5673C25.9647 19.4635 25.9647 19.3596 25.9285 19.2558C25.8742 19.0827 25.7657 19.0135 25.7115 18.9096Z" fill="#00678F"/>
<path d="M17.0848 43.8682H20.1231C20.4848 43.8682 20.8104 43.7298 21.0997 43.4874C21.5519 43.072 21.7689 42.5528 21.7689 41.8258V40.3373C21.7689 39.7488 21.5157 39.2296 21.0274 38.8488C20.7742 38.6757 20.4487 38.5719 20.1231 38.5719H18.8572C18.4231 38.5719 18.2242 38.3296 18.1699 37.7757C18.1699 37.7065 18.1699 37.6372 18.1699 37.6026V36.7026C18.1699 36.668 18.1699 36.5987 18.1699 36.5295C18.2242 36.1141 18.3327 36.0102 18.7125 35.941C18.7486 35.941 18.7848 35.941 18.8029 35.941H21.8051V34.591H18.8572C18.4231 34.591 18.2061 34.6256 18.0071 34.764C17.3922 35.1448 17.1029 35.7333 17.1029 36.7718V37.8795C17.1029 38.7796 17.6274 39.5758 18.5316 39.7488C18.622 39.7488 18.7306 39.7488 18.8391 39.7488H19.9242C19.9604 39.7488 19.9965 39.7488 20.0327 39.7488C20.3582 39.8181 20.5029 39.9219 20.6114 40.1642C20.6838 40.3027 20.6838 40.4066 20.6838 40.545V41.722C20.6838 41.8605 20.6295 42.0335 20.5391 42.2066C20.4487 42.3797 20.2859 42.4836 20.087 42.4836C20.0508 42.4836 20.0146 42.4836 19.9784 42.4836H17.0848V43.8682Z" fill="#E38D1A"/>
<path d="M28.3338 41.5143C28.3338 42.899 28.8764 43.6605 29.9615 43.799C30.07 43.799 30.1605 43.8336 30.269 43.8336H33.0179V42.4836H30.2509C29.636 42.4836 29.4009 42.2066 29.4009 41.4797V34.5563H28.3519L28.3338 41.5143Z" fill="#E38D1A"/>
<path d="M22.438 41.5835V36.8064C22.438 35.5948 22.8902 34.8333 23.7764 34.6256C23.8668 34.6256 23.9753 34.591 24.0657 34.591H26.0732C26.1817 34.591 26.2721 34.591 26.3806 34.6256C27.2668 34.8679 27.7009 35.5948 27.7009 36.8064V41.5835C27.7009 42.5874 27.52 43.1067 27.086 43.4528L28.1168 45.2529H26.9051L26.0732 43.799L25.2232 43.9028H24.1019C23.921 43.9028 23.704 43.8682 23.487 43.7644C22.7636 43.3836 22.438 42.6913 22.438 41.5835ZM23.5774 41.4797C23.5774 41.5489 23.5955 41.6181 23.5955 41.6874C23.6498 42.2412 23.921 42.5528 24.337 42.5528H25.2955L24.4274 41.0297H25.6391L26.3987 42.3451C26.5434 42.2066 26.6338 41.9643 26.67 41.6874C26.67 41.6181 26.67 41.5489 26.67 41.4797V36.9103C26.67 36.841 26.67 36.7718 26.67 36.7372C26.6158 36.2179 26.3445 35.9064 25.9285 35.9064H24.337C23.8668 35.9064 23.5593 36.2872 23.5593 36.9103L23.5774 41.4797Z" fill="#E38D1A"/>
<path d="M33.4882 43.8682H33.6329V42.7259H33.8318V42.4836H33.2711V42.7259H33.4882V43.8682ZM34.6637 43.8682H34.8084V42.5182H34.5914L34.4105 43.4528L34.2116 42.5182H33.9946V43.8682H34.1392V42.8297L34.3382 43.8682H34.4467L34.6456 42.8297L34.6637 43.8682Z" fill="#E38D1A"/>
</g>
<path d="M4.5 0L5.51031 3.10942H8.77975L6.13472 5.03115L7.14503 8.14058L4.5 6.21885L1.85497 8.14058L2.86528 5.03115L0.220246 3.10942H3.48969L4.5 0Z" fill="#FFC107"/>
<path d="M14.5 0L15.5103 3.10942H18.7798L16.1347 5.03115L17.145 8.14058L14.5 6.21885L11.855 8.14058L12.8653 5.03115L10.2202 3.10942H13.4897L14.5 0Z" fill="#FFC107"/>
<path d="M24.5 0L25.5103 3.10942H28.7798L26.1347 5.03115L27.145 8.14058L24.5 6.21885L21.855 8.14058L22.8653 5.03115L20.2202 3.10942H23.4897L24.5 0Z" fill="#FFC107"/>
<path d="M34.5 0L35.5103 3.10942H38.7798L36.1347 5.03115L37.145 8.14058L34.5 6.21885L31.855 8.14058L32.8653 5.03115L30.2202 3.10942H33.4897L34.5 0Z" fill="#FFC107"/>
<defs>
<clipPath id="clip0_104_5">
<rect width="32" height="32" fill="white" transform="translate(3 15)"/>
</clipPath>
</defs>
</svg>
