<svg width="49" height="47" viewBox="0 0 49 47" fill="none" xmlns="http://www.w3.org/2000/svg">
<path d="M24.0156 47C23.5308 47 23.0459 46.889 22.6237 46.6669L18.2131 44.3489C17.5562 44.0158 17.869 43.9048 18.088 43.8354C18.9638 43.5578 19.1515 43.5023 20.0899 43.0304C20.1838 42.9748 20.3245 43.0026 20.4184 43.0581L23.8123 44.8486C23.9374 44.9041 24.1095 44.9041 24.219 44.8486L37.435 38.0753C37.5601 38.0197 37.6383 37.8809 37.6383 37.756V24.2232C37.6383 24.0844 37.5601 23.9733 37.435 23.9039L24.219 17.1444C24.0938 17.075 23.9374 17.075 23.8123 17.1444L10.6119 23.9039C10.4868 23.9733 10.4086 24.0982 10.4086 24.2232V37.756C10.4086 37.8809 10.4868 38.0059 10.6119 38.0753L14.2248 39.9352C16.1955 40.8096 17.3842 39.7825 17.3842 38.7554V25.3891C17.3842 25.1948 17.5562 25.056 17.7752 25.056H19.4487C19.652 25.056 19.824 25.2086 19.824 25.3891V38.7415C19.824 41.0733 18.4008 42.4058 15.914 42.4058C15.1476 42.4058 14.5533 42.4058 12.8641 41.6701L9.39199 39.8935C8.53177 39.4494 8 38.6304 8 37.756V24.2232C8 23.3487 8.53177 22.5298 9.39199 22.0857L22.608 15.3123C23.437 14.8959 24.563 14.8959 25.392 15.3123L38.608 22.0857C39.4682 22.5298 40 23.3487 40 24.2232V37.756C40 38.6304 39.4682 39.4494 38.608 39.8935L25.392 46.6669C24.9853 46.8751 24.5005 47 24.0156 47Z" fill="#87C041"/>
<path d="M24.0156 47C23.5308 47 23.0459 46.889 22.6237 46.6669L18.2131 44.3489C17.5562 44.0158 17.869 43.9048 18.088 43.8354C18.9638 43.5578 19.1515 43.5023 20.0899 43.0304C20.1838 42.9748 20.3245 43.0026 20.4184 43.0581L23.8123 44.8486C23.9374 44.9041 24.1095 44.9041 24.219 44.8486L37.435 38.0753C37.5601 38.0197 37.6383 37.8809 37.6383 37.756V24.2232C37.6383 24.0844 37.5601 23.9733 37.435 23.9039L24.219 17.1444C24.0938 17.075 23.9374 17.075 23.8123 17.1444L10.6119 23.9039C10.4868 23.9733 10.4086 24.0982 10.4086 24.2232V37.756C10.4086 37.8809 10.4868 38.0059 10.6119 38.0753L14.2248 39.9352C16.1955 40.8096 17.3842 39.7825 17.3842 38.7554V25.3891C17.3842 25.1948 17.5562 25.056 17.7752 25.056H19.4487C19.652 25.056 19.824 25.2086 19.824 25.3891V38.7415C19.824 41.0733 18.4008 42.4058 15.914 42.4058C15.1476 42.4058 14.5533 42.4058 12.8641 41.6701L9.39199 39.8935C8.53177 39.4494 8 38.6304 8 37.756V24.2232C8 23.3487 8.53177 22.5298 9.39199 22.0857L22.608 15.3123C23.437 14.8959 24.563 14.8959 25.392 15.3123L38.608 22.0857C39.4682 22.5298 40 23.3487 40 24.2232V37.756C40 38.6304 39.4682 39.4494 38.608 39.8935L25.392 46.6669C24.9853 46.8751 24.5005 47 24.0156 47Z" fill="#87C041"/>
<path d="M24.0156 47C23.5308 47 23.0459 46.889 22.6237 46.6669L18.2131 44.3489C17.5562 44.0158 17.869 43.9048 18.088 43.8354C18.9638 43.5578 19.1515 43.5023 20.0899 43.0304C20.1838 42.9748 20.3245 43.0026 20.4184 43.0581L23.8123 44.8486C23.9374 44.9041 24.1095 44.9041 24.219 44.8486L37.435 38.0753C37.5601 38.0197 37.6383 37.8809 37.6383 37.756V24.2232C37.6383 24.0844 37.5601 23.9733 37.435 23.9039L24.219 17.1444C24.0938 17.075 23.9374 17.075 23.8123 17.1444L10.6119 23.9039C10.4868 23.9733 10.4086 24.0982 10.4086 24.2232V37.756C10.4086 37.8809 10.4868 38.0059 10.6119 38.0753L14.2248 39.9352C16.1955 40.8096 17.3842 39.7825 17.3842 38.7554V25.3891C17.3842 25.1948 17.5562 25.056 17.7752 25.056H19.4487C19.652 25.056 19.824 25.2086 19.824 25.3891V38.7415C19.824 41.0733 18.4008 42.4058 15.914 42.4058C15.1476 42.4058 14.5533 42.4058 12.8641 41.6701L9.39199 39.8935C8.53177 39.4494 8 38.6304 8 37.756V24.2232C8 23.3487 8.53177 22.5298 9.39199 22.0857L22.608 15.3123C23.437 14.8959 24.563 14.8959 25.392 15.3123L38.608 22.0857C39.4682 22.5298 40 23.3487 40 24.2232V37.756C40 38.6304 39.4682 39.4494 38.608 39.8935L25.392 46.6669C24.9853 46.8751 24.5005 47 24.0156 47Z" fill="#87C041"/>
<path d="M24.0156 47C23.5308 47 23.0459 46.889 22.6237 46.6669L18.2131 44.3489C17.5562 44.0158 17.869 43.9048 18.088 43.8354C18.9638 43.5578 19.1515 43.5023 20.0899 43.0304C20.1838 42.9748 20.3245 43.0026 20.4184 43.0581L23.8123 44.8486C23.9374 44.9041 24.1095 44.9041 24.219 44.8486L37.435 38.0753C37.5601 38.0197 37.6383 37.8809 37.6383 37.756V24.2232C37.6383 24.0844 37.5601 23.9733 37.435 23.9039L24.219 17.1444C24.0938 17.075 23.9374 17.075 23.8123 17.1444L10.6119 23.9039C10.4868 23.9733 10.4086 24.0982 10.4086 24.2232V37.756C10.4086 37.8809 10.4868 38.0059 10.6119 38.0753L14.2248 39.9352C16.1955 40.8096 17.3842 39.7825 17.3842 38.7554V25.3891C17.3842 25.1948 17.5562 25.056 17.7752 25.056H19.4487C19.652 25.056 19.824 25.2086 19.824 25.3891V38.7415C19.824 41.0733 18.4008 42.4058 15.914 42.4058C15.1476 42.4058 14.5533 42.4058 12.8641 41.6701L9.39199 39.8935C8.53177 39.4494 8 38.6304 8 37.756V24.2232C8 23.3487 8.53177 22.5298 9.39199 22.0857L22.608 15.3123C23.437 14.8959 24.563 14.8959 25.392 15.3123L38.608 22.0857C39.4682 22.5298 40 23.3487 40 24.2232V37.756C40 38.6304 39.4682 39.4494 38.608 39.8935L25.392 46.6669C24.9853 46.8751 24.5005 47 24.0156 47Z" fill="#87C041"/>
<path d="M24.0156 47C23.5308 47 23.0459 46.889 22.6237 46.6669L18.2131 44.3489C17.5562 44.0158 17.869 43.9048 18.088 43.8354C18.9638 43.5578 19.1515 43.5023 20.0899 43.0304C20.1838 42.9748 20.3245 43.0026 20.4184 43.0581L23.8123 44.8486C23.9374 44.9041 24.1095 44.9041 24.219 44.8486L37.435 38.0753C37.5601 38.0197 37.6383 37.8809 37.6383 37.756V24.2232C37.6383 24.0844 37.5601 23.9733 37.435 23.9039L24.219 17.1444C24.0938 17.075 23.9374 17.075 23.8123 17.1444L10.6119 23.9039C10.4868 23.9733 10.4086 24.0982 10.4086 24.2232V37.756C10.4086 37.8809 10.4868 38.0059 10.6119 38.0753L14.2248 39.9352C16.1955 40.8096 17.3842 39.7825 17.3842 38.7554V25.3891C17.3842 25.1948 17.5562 25.056 17.7752 25.056H19.4487C19.652 25.056 19.824 25.2086 19.824 25.3891V38.7415C19.824 41.0733 18.4008 42.4058 15.914 42.4058C15.1476 42.4058 14.5533 42.4058 12.8641 41.6701L9.39199 39.8935C8.53177 39.4494 8 38.6304 8 37.756V24.2232C8 23.3487 8.53177 22.5298 9.39199 22.0857L22.608 15.3123C23.437 14.8959 24.563 14.8959 25.392 15.3123L38.608 22.0857C39.4682 22.5298 40 23.3487 40 24.2232V37.756C40 38.6304 39.4682 39.4494 38.608 39.8935L25.392 46.6669C24.9853 46.8751 24.5005 47 24.0156 47Z" fill="#87C041"/>
<path d="M24.0156 47C23.5308 47 23.0459 46.889 22.6237 46.6669L18.2131 44.3489C17.5562 44.0158 17.869 43.9048 18.088 43.8354C18.9638 43.5578 19.1515 43.5023 20.0899 43.0304C20.1838 42.9748 20.3245 43.0026 20.4184 43.0581L23.8123 44.8486C23.9374 44.9041 24.1095 44.9041 24.219 44.8486L37.435 38.0753C37.5601 38.0197 37.6383 37.8809 37.6383 37.756V24.2232C37.6383 24.0844 37.5601 23.9733 37.435 23.9039L24.219 17.1444C24.0938 17.075 23.9374 17.075 23.8123 17.1444L10.6119 23.9039C10.4868 23.9733 10.4086 24.0982 10.4086 24.2232V37.756C10.4086 37.8809 10.4868 38.0059 10.6119 38.0753L14.2248 39.9352C16.1955 40.8096 17.3842 39.7825 17.3842 38.7554V25.3891C17.3842 25.1948 17.5562 25.056 17.7752 25.056H19.4487C19.652 25.056 19.824 25.2086 19.824 25.3891V38.7415C19.824 41.0733 18.4008 42.4058 15.914 42.4058C15.1476 42.4058 14.5533 42.4058 12.8641 41.6701L9.39199 39.8935C8.53177 39.4494 8 38.6304 8 37.756V24.2232C8 23.3487 8.53177 22.5298 9.39199 22.0857L22.608 15.3123C23.437 14.8959 24.563 14.8959 25.392 15.3123L38.608 22.0857C39.4682 22.5298 40 23.3487 40 24.2232V37.756C40 38.6304 39.4682 39.4494 38.608 39.8935L25.392 46.6669C24.9853 46.8751 24.5005 47 24.0156 47Z" fill="#87C041"/>
<path d="M24.0156 47C23.5308 47 23.0459 46.889 22.6237 46.6669L18.2131 44.3489C17.5562 44.0158 17.869 43.9048 18.088 43.8354C18.9638 43.5578 19.1515 43.5023 20.0899 43.0304C20.1838 42.9748 20.3245 43.0026 20.4184 43.0581L23.8123 44.8486C23.9374 44.9041 24.1095 44.9041 24.219 44.8486L37.435 38.0753C37.5601 38.0197 37.6383 37.8809 37.6383 37.756V24.2232C37.6383 24.0844 37.5601 23.9733 37.435 23.9039L24.219 17.1444C24.0938 17.075 23.9374 17.075 23.8123 17.1444L10.6119 23.9039C10.4868 23.9733 10.4086 24.0982 10.4086 24.2232V37.756C10.4086 37.8809 10.4868 38.0059 10.6119 38.0753L14.2248 39.9352C16.1955 40.8096 17.3842 39.7825 17.3842 38.7554V25.3891C17.3842 25.1948 17.5562 25.056 17.7752 25.056H19.4487C19.652 25.056 19.824 25.2086 19.824 25.3891V38.7415C19.824 41.0733 18.4008 42.4058 15.914 42.4058C15.1476 42.4058 14.5533 42.4058 12.8641 41.6701L9.39199 39.8935C8.53177 39.4494 8 38.6304 8 37.756V24.2232C8 23.3487 8.53177 22.5298 9.39199 22.0857L22.608 15.3123C23.437 14.8959 24.563 14.8959 25.392 15.3123L38.608 22.0857C39.4682 22.5298 40 23.3487 40 24.2232V37.756C40 38.6304 39.4682 39.4494 38.608 39.8935L25.392 46.6669C24.9853 46.8751 24.5005 47 24.0156 47Z" fill="#87C041"/>
<path d="M24.0156 47C23.5308 47 23.0459 46.889 22.6237 46.6669L18.2131 44.3489C17.5562 44.0158 17.869 43.9048 18.088 43.8354C18.9638 43.5578 19.1515 43.5023 20.0899 43.0304C20.1838 42.9748 20.3245 43.0026 20.4184 43.0581L23.8123 44.8486C23.9374 44.9041 24.1095 44.9041 24.219 44.8486L37.435 38.0753C37.5601 38.0197 37.6383 37.8809 37.6383 37.756V24.2232C37.6383 24.0844 37.5601 23.9733 37.435 23.9039L24.219 17.1444C24.0938 17.075 23.9374 17.075 23.8123 17.1444L10.6119 23.9039C10.4868 23.9733 10.4086 24.0982 10.4086 24.2232V37.756C10.4086 37.8809 10.4868 38.0059 10.6119 38.0753L14.2248 39.9352C16.1955 40.8096 17.3842 39.7825 17.3842 38.7554V25.3891C17.3842 25.1948 17.5562 25.056 17.7752 25.056H19.4487C19.652 25.056 19.824 25.2086 19.824 25.3891V38.7415C19.824 41.0733 18.4008 42.4058 15.914 42.4058C15.1476 42.4058 14.5533 42.4058 12.8641 41.6701L9.39199 39.8935C8.53177 39.4494 8 38.6304 8 37.756V24.2232C8 23.3487 8.53177 22.5298 9.39199 22.0857L22.608 15.3123C23.437 14.8959 24.563 14.8959 25.392 15.3123L38.608 22.0857C39.4682 22.5298 40 23.3487 40 24.2232V37.756C40 38.6304 39.4682 39.4494 38.608 39.8935L25.392 46.6669C24.9853 46.8751 24.5005 47 24.0156 47Z" fill="#87C041"/>
<path d="M24.0156 47C23.5308 47 23.0459 46.889 22.6237 46.6669L18.2131 44.3489C17.5562 44.0158 17.869 43.9048 18.088 43.8354C18.9638 43.5578 19.1515 43.5023 20.0899 43.0304C20.1838 42.9748 20.3245 43.0026 20.4184 43.0581L23.8123 44.8486C23.9374 44.9041 24.1095 44.9041 24.219 44.8486L37.435 38.0753C37.5601 38.0197 37.6383 37.8809 37.6383 37.756V24.2232C37.6383 24.0844 37.5601 23.9733 37.435 23.9039L24.219 17.1444C24.0938 17.075 23.9374 17.075 23.8123 17.1444L10.6119 23.9039C10.4868 23.9733 10.4086 24.0982 10.4086 24.2232V37.756C10.4086 37.8809 10.4868 38.0059 10.6119 38.0753L14.2248 39.9352C16.1955 40.8096 17.3842 39.7825 17.3842 38.7554V25.3891C17.3842 25.1948 17.5562 25.056 17.7752 25.056H19.4487C19.652 25.056 19.824 25.2086 19.824 25.3891V38.7415C19.824 41.0733 18.4008 42.4058 15.914 42.4058C15.1476 42.4058 14.5533 42.4058 12.8641 41.6701L9.39199 39.8935C8.53177 39.4494 8 38.6304 8 37.756V24.2232C8 23.3487 8.53177 22.5298 9.39199 22.0857L22.608 15.3123C23.437 14.8959 24.563 14.8959 25.392 15.3123L38.608 22.0857C39.4682 22.5298 40 23.3487 40 24.2232V37.756C40 38.6304 39.4682 39.4494 38.608 39.8935L25.392 46.6669C24.9853 46.8751 24.5005 47 24.0156 47Z" fill="#87C041"/>
<path d="M24.0156 47C23.5308 47 23.0459 46.889 22.6237 46.6669L18.2131 44.3489C17.5562 44.0158 17.869 43.9048 18.088 43.8354C18.9638 43.5578 19.1515 43.5023 20.0899 43.0304C20.1838 42.9748 20.3245 43.0026 20.4184 43.0581L23.8123 44.8486C23.9374 44.9041 24.1095 44.9041 24.219 44.8486L37.435 38.0753C37.5601 38.0197 37.6383 37.8809 37.6383 37.756V24.2232C37.6383 24.0844 37.5601 23.9733 37.435 23.9039L24.219 17.1444C24.0938 17.075 23.9374 17.075 23.8123 17.1444L10.6119 23.9039C10.4868 23.9733 10.4086 24.0982 10.4086 24.2232V37.756C10.4086 37.8809 10.4868 38.0059 10.6119 38.0753L14.2248 39.9352C16.1955 40.8096 17.3842 39.7825 17.3842 38.7554V25.3891C17.3842 25.1948 17.5562 25.056 17.7752 25.056H19.4487C19.652 25.056 19.824 25.2086 19.824 25.3891V38.7415C19.824 41.0733 18.4008 42.4058 15.914 42.4058C15.1476 42.4058 14.5533 42.4058 12.8641 41.6701L9.39199 39.8935C8.53177 39.4494 8 38.6304 8 37.756V24.2232C8 23.3487 8.53177 22.5298 9.39199 22.0857L22.608 15.3123C23.437 14.8959 24.563 14.8959 25.392 15.3123L38.608 22.0857C39.4682 22.5298 40 23.3487 40 24.2232V37.756C40 38.6304 39.4682 39.4494 38.608 39.8935L25.392 46.6669C24.9853 46.8751 24.5005 47 24.0156 47Z" fill="#87C041"/>
<path d="M24.0156 47C23.5308 47 23.0459 46.889 22.6237 46.6669L18.2131 44.3489C17.5562 44.0158 17.869 43.9048 18.088 43.8354C18.9638 43.5578 19.1515 43.5023 20.0899 43.0304C20.1838 42.9748 20.3245 43.0026 20.4184 43.0581L23.8123 44.8486C23.9374 44.9041 24.1095 44.9041 24.219 44.8486L37.435 38.0753C37.5601 38.0197 37.6383 37.8809 37.6383 37.756V24.2232C37.6383 24.0844 37.5601 23.9733 37.435 23.9039L24.219 17.1444C24.0938 17.075 23.9374 17.075 23.8123 17.1444L10.6119 23.9039C10.4868 23.9733 10.4086 24.0982 10.4086 24.2232V37.756C10.4086 37.8809 10.4868 38.0059 10.6119 38.0753L14.2248 39.9352C16.1955 40.8096 17.3842 39.7825 17.3842 38.7554V25.3891C17.3842 25.1948 17.5562 25.056 17.7752 25.056H19.4487C19.652 25.056 19.824 25.2086 19.824 25.3891V38.7415C19.824 41.0733 18.4008 42.4058 15.914 42.4058C15.1476 42.4058 14.5533 42.4058 12.8641 41.6701L9.39199 39.8935C8.53177 39.4494 8 38.6304 8 37.756V24.2232C8 23.3487 8.53177 22.5298 9.39199 22.0857L22.608 15.3123C23.437 14.8959 24.563 14.8959 25.392 15.3123L38.608 22.0857C39.4682 22.5298 40 23.3487 40 24.2232V37.756C40 38.6304 39.4682 39.4494 38.608 39.8935L25.392 46.6669C24.9853 46.8751 24.5005 47 24.0156 47Z" fill="#87C041"/>
<path d="M24.0156 47C23.5308 47 23.0459 46.889 22.6237 46.6669L18.2131 44.3489C17.5562 44.0158 17.869 43.9048 18.088 43.8354C18.9638 43.5578 19.1515 43.5023 20.0899 43.0304C20.1838 42.9748 20.3245 43.0026 20.4184 43.0581L23.8123 44.8486C23.9374 44.9041 24.1095 44.9041 24.219 44.8486L37.435 38.0753C37.5601 38.0197 37.6383 37.8809 37.6383 37.756V24.2232C37.6383 24.0844 37.5601 23.9733 37.435 23.9039L24.219 17.1444C24.0938 17.075 23.9374 17.075 23.8123 17.1444L10.6119 23.9039C10.4868 23.9733 10.4086 24.0982 10.4086 24.2232V37.756C10.4086 37.8809 10.4868 38.0059 10.6119 38.0753L14.2248 39.9352C16.1955 40.8096 17.3842 39.7825 17.3842 38.7554V25.3891C17.3842 25.1948 17.5562 25.056 17.7752 25.056H19.4487C19.652 25.056 19.824 25.2086 19.824 25.3891V38.7415C19.824 41.0733 18.4008 42.4058 15.914 42.4058C15.1476 42.4058 14.5533 42.4058 12.8641 41.6701L9.39199 39.8935C8.53177 39.4494 8 38.6304 8 37.756V24.2232C8 23.3487 8.53177 22.5298 9.39199 22.0857L22.608 15.3123C23.437 14.8959 24.563 14.8959 25.392 15.3123L38.608 22.0857C39.4682 22.5298 40 23.3487 40 24.2232V37.756C40 38.6304 39.4682 39.4494 38.608 39.8935L25.392 46.6669C24.9853 46.8751 24.5005 47 24.0156 47Z" fill="#87C041"/>
<path d="M24.0156 47C23.5308 47 23.0459 46.889 22.6237 46.6669L18.2131 44.3489C17.5562 44.0158 17.869 43.9048 18.088 43.8354C18.9638 43.5578 19.1515 43.5023 20.0899 43.0304C20.1838 42.9748 20.3245 43.0026 20.4184 43.0581L23.8123 44.8486C23.9374 44.9041 24.1095 44.9041 24.219 44.8486L37.435 38.0753C37.5601 38.0197 37.6383 37.8809 37.6383 37.756V24.2232C37.6383 24.0844 37.5601 23.9733 37.435 23.9039L24.219 17.1444C24.0938 17.075 23.9374 17.075 23.8123 17.1444L10.6119 23.9039C10.4868 23.9733 10.4086 24.0982 10.4086 24.2232V37.756C10.4086 37.8809 10.4868 38.0059 10.6119 38.0753L14.2248 39.9352C16.1955 40.8096 17.3842 39.7825 17.3842 38.7554V25.3891C17.3842 25.1948 17.5562 25.056 17.7752 25.056H19.4487C19.652 25.056 19.824 25.2086 19.824 25.3891V38.7415C19.824 41.0733 18.4008 42.4058 15.914 42.4058C15.1476 42.4058 14.5533 42.4058 12.8641 41.6701L9.39199 39.8935C8.53177 39.4494 8 38.6304 8 37.756V24.2232C8 23.3487 8.53177 22.5298 9.39199 22.0857L22.608 15.3123C23.437 14.8959 24.563 14.8959 25.392 15.3123L38.608 22.0857C39.4682 22.5298 40 23.3487 40 24.2232V37.756C40 38.6304 39.4682 39.4494 38.608 39.8935L25.392 46.6669C24.9853 46.8751 24.5005 47 24.0156 47Z" fill="#87C041"/>
<path d="M24.0156 47C23.5308 47 23.0459 46.889 22.6237 46.6669L18.2131 44.3489C17.5562 44.0158 17.869 43.9048 18.088 43.8354C18.9638 43.5578 19.1515 43.5023 20.0899 43.0304C20.1838 42.9748 20.3245 43.0026 20.4184 43.0581L23.8123 44.8486C23.9374 44.9041 24.1095 44.9041 24.219 44.8486L37.435 38.0753C37.5601 38.0197 37.6383 37.8809 37.6383 37.756V24.2232C37.6383 24.0844 37.5601 23.9733 37.435 23.9039L24.219 17.1444C24.0938 17.075 23.9374 17.075 23.8123 17.1444L10.6119 23.9039C10.4868 23.9733 10.4086 24.0982 10.4086 24.2232V37.756C10.4086 37.8809 10.4868 38.0059 10.6119 38.0753L14.2248 39.9352C16.1955 40.8096 17.3842 39.7825 17.3842 38.7554V25.3891C17.3842 25.1948 17.5562 25.056 17.7752 25.056H19.4487C19.652 25.056 19.824 25.2086 19.824 25.3891V38.7415C19.824 41.0733 18.4008 42.4058 15.914 42.4058C15.1476 42.4058 14.5533 42.4058 12.8641 41.6701L9.39199 39.8935C8.53177 39.4494 8 38.6304 8 37.756V24.2232C8 23.3487 8.53177 22.5298 9.39199 22.0857L22.608 15.3123C23.437 14.8959 24.563 14.8959 25.392 15.3123L38.608 22.0857C39.4682 22.5298 40 23.3487 40 24.2232V37.756C40 38.6304 39.4682 39.4494 38.608 39.8935L25.392 46.6669C24.9853 46.8751 24.5005 47 24.0156 47Z" fill="#87C041"/>
<path d="M24.0156 47C23.5308 47 23.0459 46.889 22.6237 46.6669L18.2131 44.3489C17.5562 44.0158 17.869 43.9048 18.088 43.8354C18.9638 43.5578 19.1515 43.5023 20.0899 43.0304C20.1838 42.9748 20.3245 43.0026 20.4184 43.0581L23.8123 44.8486C23.9374 44.9041 24.1095 44.9041 24.219 44.8486L37.435 38.0753C37.5601 38.0197 37.6383 37.8809 37.6383 37.756V24.2232C37.6383 24.0844 37.5601 23.9733 37.435 23.9039L24.219 17.1444C24.0938 17.075 23.9374 17.075 23.8123 17.1444L10.6119 23.9039C10.4868 23.9733 10.4086 24.0982 10.4086 24.2232V37.756C10.4086 37.8809 10.4868 38.0059 10.6119 38.0753L14.2248 39.9352C16.1955 40.8096 17.3842 39.7825 17.3842 38.7554V25.3891C17.3842 25.1948 17.5562 25.056 17.7752 25.056H19.4487C19.652 25.056 19.824 25.2086 19.824 25.3891V38.7415C19.824 41.0733 18.4008 42.4058 15.914 42.4058C15.1476 42.4058 14.5533 42.4058 12.8641 41.6701L9.39199 39.8935C8.53177 39.4494 8 38.6304 8 37.756V24.2232C8 23.3487 8.53177 22.5298 9.39199 22.0857L22.608 15.3123C23.437 14.8959 24.563 14.8959 25.392 15.3123L38.608 22.0857C39.4682 22.5298 40 23.3487 40 24.2232V37.756C40 38.6304 39.4682 39.4494 38.608 39.8935L25.392 46.6669C24.9853 46.8751 24.5005 47 24.0156 47Z" fill="#87C041"/>
<path d="M24.0156 47C23.5308 47 23.0459 46.889 22.6237 46.6669L18.2131 44.3489C17.5562 44.0158 17.869 43.9048 18.088 43.8354C18.9638 43.5578 19.1515 43.5023 20.0899 43.0304C20.1838 42.9748 20.3245 43.0026 20.4184 43.0581L23.8123 44.8486C23.9374 44.9041 24.1095 44.9041 24.219 44.8486L37.435 38.0753C37.5601 38.0197 37.6383 37.8809 37.6383 37.756V24.2232C37.6383 24.0844 37.5601 23.9733 37.435 23.9039L24.219 17.1444C24.0938 17.075 23.9374 17.075 23.8123 17.1444L10.6119 23.9039C10.4868 23.9733 10.4086 24.0982 10.4086 24.2232V37.756C10.4086 37.8809 10.4868 38.0059 10.6119 38.0753L14.2248 39.9352C16.1955 40.8096 17.3842 39.7825 17.3842 38.7554V25.3891C17.3842 25.1948 17.5562 25.056 17.7752 25.056H19.4487C19.652 25.056 19.824 25.2086 19.824 25.3891V38.7415C19.824 41.0733 18.4008 42.4058 15.914 42.4058C15.1476 42.4058 14.5533 42.4058 12.8641 41.6701L9.39199 39.8935C8.53177 39.4494 8 38.6304 8 37.756V24.2232C8 23.3487 8.53177 22.5298 9.39199 22.0857L22.608 15.3123C23.437 14.8959 24.563 14.8959 25.392 15.3123L38.608 22.0857C39.4682 22.5298 40 23.3487 40 24.2232V37.756C40 38.6304 39.4682 39.4494 38.608 39.8935L25.392 46.6669C24.9853 46.8751 24.5005 47 24.0156 47Z" fill="#87C041"/>
<path d="M24.0156 47C23.5308 47 23.0459 46.889 22.6237 46.6669L18.2131 44.3489C17.5562 44.0158 17.869 43.9048 18.088 43.8354C18.9638 43.5578 19.1515 43.5023 20.0899 43.0304C20.1838 42.9748 20.3245 43.0026 20.4184 43.0581L23.8123 44.8486C23.9374 44.9041 24.1095 44.9041 24.219 44.8486L37.435 38.0753C37.5601 38.0197 37.6383 37.8809 37.6383 37.756V24.2232C37.6383 24.0844 37.5601 23.9733 37.435 23.9039L24.219 17.1444C24.0938 17.075 23.9374 17.075 23.8123 17.1444L10.6119 23.9039C10.4868 23.9733 10.4086 24.0982 10.4086 24.2232V37.756C10.4086 37.8809 10.4868 38.0059 10.6119 38.0753L14.2248 39.9352C16.1955 40.8096 17.3842 39.7825 17.3842 38.7554V25.3891C17.3842 25.1948 17.5562 25.056 17.7752 25.056H19.4487C19.652 25.056 19.824 25.2086 19.824 25.3891V38.7415C19.824 41.0733 18.4008 42.4058 15.914 42.4058C15.1476 42.4058 14.5533 42.4058 12.8641 41.6701L9.39199 39.8935C8.53177 39.4494 8 38.6304 8 37.756V24.2232C8 23.3487 8.53177 22.5298 9.39199 22.0857L22.608 15.3123C23.437 14.8959 24.563 14.8959 25.392 15.3123L38.608 22.0857C39.4682 22.5298 40 23.3487 40 24.2232V37.756C40 38.6304 39.4682 39.4494 38.608 39.8935L25.392 46.6669C24.9853 46.8751 24.5005 47 24.0156 47Z" fill="#87C041"/>
<path d="M24.0156 47C23.5308 47 23.0459 46.889 22.6237 46.6669L18.2131 44.3489C17.5562 44.0158 17.869 43.9048 18.088 43.8354C18.9638 43.5578 19.1515 43.5023 20.0899 43.0304C20.1838 42.9748 20.3245 43.0026 20.4184 43.0581L23.8123 44.8486C23.9374 44.9041 24.1095 44.9041 24.219 44.8486L37.435 38.0753C37.5601 38.0197 37.6383 37.8809 37.6383 37.756V24.2232C37.6383 24.0844 37.5601 23.9733 37.435 23.9039L24.219 17.1444C24.0938 17.075 23.9374 17.075 23.8123 17.1444L10.6119 23.9039C10.4868 23.9733 10.4086 24.0982 10.4086 24.2232V37.756C10.4086 37.8809 10.4868 38.0059 10.6119 38.0753L14.2248 39.9352C16.1955 40.8096 17.3842 39.7825 17.3842 38.7554V25.3891C17.3842 25.1948 17.5562 25.056 17.7752 25.056H19.4487C19.652 25.056 19.824 25.2086 19.824 25.3891V38.7415C19.824 41.0733 18.4008 42.4058 15.914 42.4058C15.1476 42.4058 14.5533 42.4058 12.8641 41.6701L9.39199 39.8935C8.53177 39.4494 8 38.6304 8 37.756V24.2232C8 23.3487 8.53177 22.5298 9.39199 22.0857L22.608 15.3123C23.437 14.8959 24.563 14.8959 25.392 15.3123L38.608 22.0857C39.4682 22.5298 40 23.3487 40 24.2232V37.756C40 38.6304 39.4682 39.4494 38.608 39.8935L25.392 46.6669C24.9853 46.8751 24.5005 47 24.0156 47Z" fill="#87C041"/>
<path d="M24.0156 47C23.5308 47 23.0459 46.889 22.6237 46.6669L18.2131 44.3489C17.5562 44.0158 17.869 43.9048 18.088 43.8354C18.9638 43.5578 19.1515 43.5023 20.0899 43.0304C20.1838 42.9748 20.3245 43.0026 20.4184 43.0581L23.8123 44.8486C23.9374 44.9041 24.1095 44.9041 24.219 44.8486L37.435 38.0753C37.5601 38.0197 37.6383 37.8809 37.6383 37.756V24.2232C37.6383 24.0844 37.5601 23.9733 37.435 23.9039L24.219 17.1444C24.0938 17.075 23.9374 17.075 23.8123 17.1444L10.6119 23.9039C10.4868 23.9733 10.4086 24.0982 10.4086 24.2232V37.756C10.4086 37.8809 10.4868 38.0059 10.6119 38.0753L14.2248 39.9352C16.1955 40.8096 17.3842 39.7825 17.3842 38.7554V25.3891C17.3842 25.1948 17.5562 25.056 17.7752 25.056H19.4487C19.652 25.056 19.824 25.2086 19.824 25.3891V38.7415C19.824 41.0733 18.4008 42.4058 15.914 42.4058C15.1476 42.4058 14.5533 42.4058 12.8641 41.6701L9.39199 39.8935C8.53177 39.4494 8 38.6304 8 37.756V24.2232C8 23.3487 8.53177 22.5298 9.39199 22.0857L22.608 15.3123C23.437 14.8959 24.563 14.8959 25.392 15.3123L38.608 22.0857C39.4682 22.5298 40 23.3487 40 24.2232V37.756C40 38.6304 39.4682 39.4494 38.608 39.8935L25.392 46.6669C24.9853 46.8751 24.5005 47 24.0156 47Z" fill="#87C041"/>
<path d="M24.0156 47C23.5308 47 23.0459 46.889 22.6237 46.6669L18.2131 44.3489C17.5562 44.0158 17.869 43.9048 18.088 43.8354C18.9638 43.5578 19.1515 43.5023 20.0899 43.0304C20.1838 42.9748 20.3245 43.0026 20.4184 43.0581L23.8123 44.8486C23.9374 44.9041 24.1095 44.9041 24.219 44.8486L37.435 38.0753C37.5601 38.0197 37.6383 37.8809 37.6383 37.756V24.2232C37.6383 24.0844 37.5601 23.9733 37.435 23.9039L24.219 17.1444C24.0938 17.075 23.9374 17.075 23.8123 17.1444L10.6119 23.9039C10.4868 23.9733 10.4086 24.0982 10.4086 24.2232V37.756C10.4086 37.8809 10.4868 38.0059 10.6119 38.0753L14.2248 39.9352C16.1955 40.8096 17.3842 39.7825 17.3842 38.7554V25.3891C17.3842 25.1948 17.5562 25.056 17.7752 25.056H19.4487C19.652 25.056 19.824 25.2086 19.824 25.3891V38.7415C19.824 41.0733 18.4008 42.4058 15.914 42.4058C15.1476 42.4058 14.5533 42.4058 12.8641 41.6701L9.39199 39.8935C8.53177 39.4494 8 38.6304 8 37.756V24.2232C8 23.3487 8.53177 22.5298 9.39199 22.0857L22.608 15.3123C23.437 14.8959 24.563 14.8959 25.392 15.3123L38.608 22.0857C39.4682 22.5298 40 23.3487 40 24.2232V37.756C40 38.6304 39.4682 39.4494 38.608 39.8935L25.392 46.6669C24.9853 46.8751 24.5005 47 24.0156 47Z" fill="#87C041"/>
<path d="M24.0156 47C23.5308 47 23.0459 46.889 22.6237 46.6669L18.2131 44.3489C17.5562 44.0158 17.869 43.9048 18.088 43.8354C18.9638 43.5578 19.1515 43.5023 20.0899 43.0304C20.1838 42.9748 20.3245 43.0026 20.4184 43.0581L23.8123 44.8486C23.9374 44.9041 24.1095 44.9041 24.219 44.8486L37.435 38.0753C37.5601 38.0197 37.6383 37.8809 37.6383 37.756V24.2232C37.6383 24.0844 37.5601 23.9733 37.435 23.9039L24.219 17.1444C24.0938 17.075 23.9374 17.075 23.8123 17.1444L10.6119 23.9039C10.4868 23.9733 10.4086 24.0982 10.4086 24.2232V37.756C10.4086 37.8809 10.4868 38.0059 10.6119 38.0753L14.2248 39.9352C16.1955 40.8096 17.3842 39.7825 17.3842 38.7554V25.3891C17.3842 25.1948 17.5562 25.056 17.7752 25.056H19.4487C19.652 25.056 19.824 25.2086 19.824 25.3891V38.7415C19.824 41.0733 18.4008 42.4058 15.914 42.4058C15.1476 42.4058 14.5533 42.4058 12.8641 41.6701L9.39199 39.8935C8.53177 39.4494 8 38.6304 8 37.756V24.2232C8 23.3487 8.53177 22.5298 9.39199 22.0857L22.608 15.3123C23.437 14.8959 24.563 14.8959 25.392 15.3123L38.608 22.0857C39.4682 22.5298 40 23.3487 40 24.2232V37.756C40 38.6304 39.4682 39.4494 38.608 39.8935L25.392 46.6669C24.9853 46.8751 24.5005 47 24.0156 47Z" fill="#87C041"/>
<path d="M24.0156 47C23.5308 47 23.0459 46.889 22.6237 46.6669L18.2131 44.3489C17.5562 44.0158 17.869 43.9048 18.088 43.8354C18.9638 43.5578 19.1515 43.5023 20.0899 43.0304C20.1838 42.9748 20.3245 43.0026 20.4184 43.0581L23.8123 44.8486C23.9374 44.9041 24.1095 44.9041 24.219 44.8486L37.435 38.0753C37.5601 38.0197 37.6383 37.8809 37.6383 37.756V24.2232C37.6383 24.0844 37.5601 23.9733 37.435 23.9039L24.219 17.1444C24.0938 17.075 23.9374 17.075 23.8123 17.1444L10.6119 23.9039C10.4868 23.9733 10.4086 24.0982 10.4086 24.2232V37.756C10.4086 37.8809 10.4868 38.0059 10.6119 38.0753L14.2248 39.9352C16.1955 40.8096 17.3842 39.7825 17.3842 38.7554V25.3891C17.3842 25.1948 17.5562 25.056 17.7752 25.056H19.4487C19.652 25.056 19.824 25.2086 19.824 25.3891V38.7415C19.824 41.0733 18.4008 42.4058 15.914 42.4058C15.1476 42.4058 14.5533 42.4058 12.8641 41.6701L9.39199 39.8935C8.53177 39.4494 8 38.6304 8 37.756V24.2232C8 23.3487 8.53177 22.5298 9.39199 22.0857L22.608 15.3123C23.437 14.8959 24.563 14.8959 25.392 15.3123L38.608 22.0857C39.4682 22.5298 40 23.3487 40 24.2232V37.756C40 38.6304 39.4682 39.4494 38.608 39.8935L25.392 46.6669C24.9853 46.8751 24.5005 47 24.0156 47Z" fill="#87C041"/>
<path d="M24.0156 47C23.5308 47 23.0459 46.889 22.6237 46.6669L18.2131 44.3489C17.5562 44.0158 17.869 43.9048 18.088 43.8354C18.9638 43.5578 19.1515 43.5023 20.0899 43.0304C20.1838 42.9748 20.3245 43.0026 20.4184 43.0581L23.8123 44.8486C23.9374 44.9041 24.1095 44.9041 24.219 44.8486L37.435 38.0753C37.5601 38.0197 37.6383 37.8809 37.6383 37.756V24.2232C37.6383 24.0844 37.5601 23.9733 37.435 23.9039L24.219 17.1444C24.0938 17.075 23.9374 17.075 23.8123 17.1444L10.6119 23.9039C10.4868 23.9733 10.4086 24.0982 10.4086 24.2232V37.756C10.4086 37.8809 10.4868 38.0059 10.6119 38.0753L14.2248 39.9352C16.1955 40.8096 17.3842 39.7825 17.3842 38.7554V25.3891C17.3842 25.1948 17.5562 25.056 17.7752 25.056H19.4487C19.652 25.056 19.824 25.2086 19.824 25.3891V38.7415C19.824 41.0733 18.4008 42.4058 15.914 42.4058C15.1476 42.4058 14.5533 42.4058 12.8641 41.6701L9.39199 39.8935C8.53177 39.4494 8 38.6304 8 37.756V24.2232C8 23.3487 8.53177 22.5298 9.39199 22.0857L22.608 15.3123C23.437 14.8959 24.563 14.8959 25.392 15.3123L38.608 22.0857C39.4682 22.5298 40 23.3487 40 24.2232V37.756C40 38.6304 39.4682 39.4494 38.608 39.8935L25.392 46.6669C24.9853 46.8751 24.5005 47 24.0156 47Z" fill="#87C041"/>
<path d="M24.0156 47C23.5308 47 23.0459 46.889 22.6237 46.6669L18.2131 44.3489C17.5562 44.0158 17.869 43.9048 18.088 43.8354C18.9638 43.5578 19.1515 43.5023 20.0899 43.0304C20.1838 42.9748 20.3245 43.0026 20.4184 43.0581L23.8123 44.8486C23.9374 44.9041 24.1095 44.9041 24.219 44.8486L37.435 38.0753C37.5601 38.0197 37.6383 37.8809 37.6383 37.756V24.2232C37.6383 24.0844 37.5601 23.9733 37.435 23.9039L24.219 17.1444C24.0938 17.075 23.9374 17.075 23.8123 17.1444L10.6119 23.9039C10.4868 23.9733 10.4086 24.0982 10.4086 24.2232V37.756C10.4086 37.8809 10.4868 38.0059 10.6119 38.0753L14.2248 39.9352C16.1955 40.8096 17.3842 39.7825 17.3842 38.7554V25.3891C17.3842 25.1948 17.5562 25.056 17.7752 25.056H19.4487C19.652 25.056 19.824 25.2086 19.824 25.3891V38.7415C19.824 41.0733 18.4008 42.4058 15.914 42.4058C15.1476 42.4058 14.5533 42.4058 12.8641 41.6701L9.39199 39.8935C8.53177 39.4494 8 38.6304 8 37.756V24.2232C8 23.3487 8.53177 22.5298 9.39199 22.0857L22.608 15.3123C23.437 14.8959 24.563 14.8959 25.392 15.3123L38.608 22.0857C39.4682 22.5298 40 23.3487 40 24.2232V37.756C40 38.6304 39.4682 39.4494 38.608 39.8935L25.392 46.6669C24.9853 46.8751 24.5005 47 24.0156 47Z" fill="#87C041"/>
<path d="M24.0156 47C23.5308 47 23.0459 46.889 22.6237 46.6669L18.2131 44.3489C17.5562 44.0158 17.869 43.9048 18.088 43.8354C18.9638 43.5578 19.1515 43.5023 20.0899 43.0304C20.1838 42.9748 20.3245 43.0026 20.4184 43.0581L23.8123 44.8486C23.9374 44.9041 24.1095 44.9041 24.219 44.8486L37.435 38.0753C37.5601 38.0197 37.6383 37.8809 37.6383 37.756V24.2232C37.6383 24.0844 37.5601 23.9733 37.435 23.9039L24.219 17.1444C24.0938 17.075 23.9374 17.075 23.8123 17.1444L10.6119 23.9039C10.4868 23.9733 10.4086 24.0982 10.4086 24.2232V37.756C10.4086 37.8809 10.4868 38.0059 10.6119 38.0753L14.2248 39.9352C16.1955 40.8096 17.3842 39.7825 17.3842 38.7554V25.3891C17.3842 25.1948 17.5562 25.056 17.7752 25.056H19.4487C19.652 25.056 19.824 25.2086 19.824 25.3891V38.7415C19.824 41.0733 18.4008 42.4058 15.914 42.4058C15.1476 42.4058 14.5533 42.4058 12.8641 41.6701L9.39199 39.8935C8.53177 39.4494 8 38.6304 8 37.756V24.2232C8 23.3487 8.53177 22.5298 9.39199 22.0857L22.608 15.3123C23.437 14.8959 24.563 14.8959 25.392 15.3123L38.608 22.0857C39.4682 22.5298 40 23.3487 40 24.2232V37.756C40 38.6304 39.4682 39.4494 38.608 39.8935L25.392 46.6669C24.9853 46.8751 24.5005 47 24.0156 47Z" fill="#87C041"/>
<path d="M24.0156 47C23.5308 47 23.0459 46.889 22.6237 46.6669L18.2131 44.3489C17.5562 44.0158 17.869 43.9048 18.088 43.8354C18.9638 43.5578 19.1515 43.5023 20.0899 43.0304C20.1838 42.9748 20.3245 43.0026 20.4184 43.0581L23.8123 44.8486C23.9374 44.9041 24.1095 44.9041 24.219 44.8486L37.435 38.0753C37.5601 38.0197 37.6383 37.8809 37.6383 37.756V24.2232C37.6383 24.0844 37.5601 23.9733 37.435 23.9039L24.219 17.1444C24.0938 17.075 23.9374 17.075 23.8123 17.1444L10.6119 23.9039C10.4868 23.9733 10.4086 24.0982 10.4086 24.2232V37.756C10.4086 37.8809 10.4868 38.0059 10.6119 38.0753L14.2248 39.9352C16.1955 40.8096 17.3842 39.7825 17.3842 38.7554V25.3891C17.3842 25.1948 17.5562 25.056 17.7752 25.056H19.4487C19.652 25.056 19.824 25.2086 19.824 25.3891V38.7415C19.824 41.0733 18.4008 42.4058 15.914 42.4058C15.1476 42.4058 14.5533 42.4058 12.8641 41.6701L9.39199 39.8935C8.53177 39.4494 8 38.6304 8 37.756V24.2232C8 23.3487 8.53177 22.5298 9.39199 22.0857L22.608 15.3123C23.437 14.8959 24.563 14.8959 25.392 15.3123L38.608 22.0857C39.4682 22.5298 40 23.3487 40 24.2232V37.756C40 38.6304 39.4682 39.4494 38.608 39.8935L25.392 46.6669C24.9853 46.8751 24.5005 47 24.0156 47Z" fill="#87C041"/>
<path d="M24.0156 47C23.5308 47 23.0459 46.889 22.6237 46.6669L18.2131 44.3489C17.5562 44.0158 17.869 43.9048 18.088 43.8354C18.9638 43.5578 19.1515 43.5023 20.0899 43.0304C20.1838 42.9748 20.3245 43.0026 20.4184 43.0581L23.8123 44.8486C23.9374 44.9041 24.1095 44.9041 24.219 44.8486L37.435 38.0753C37.5601 38.0197 37.6383 37.8809 37.6383 37.756V24.2232C37.6383 24.0844 37.5601 23.9733 37.435 23.9039L24.219 17.1444C24.0938 17.075 23.9374 17.075 23.8123 17.1444L10.6119 23.9039C10.4868 23.9733 10.4086 24.0982 10.4086 24.2232V37.756C10.4086 37.8809 10.4868 38.0059 10.6119 38.0753L14.2248 39.9352C16.1955 40.8096 17.3842 39.7825 17.3842 38.7554V25.3891C17.3842 25.1948 17.5562 25.056 17.7752 25.056H19.4487C19.652 25.056 19.824 25.2086 19.824 25.3891V38.7415C19.824 41.0733 18.4008 42.4058 15.914 42.4058C15.1476 42.4058 14.5533 42.4058 12.8641 41.6701L9.39199 39.8935C8.53177 39.4494 8 38.6304 8 37.756V24.2232C8 23.3487 8.53177 22.5298 9.39199 22.0857L22.608 15.3123C23.437 14.8959 24.563 14.8959 25.392 15.3123L38.608 22.0857C39.4682 22.5298 40 23.3487 40 24.2232V37.756C40 38.6304 39.4682 39.4494 38.608 39.8935L25.392 46.6669C24.9853 46.8751 24.5005 47 24.0156 47Z" fill="#87C041"/>
<path d="M24.0156 47C23.5308 47 23.0459 46.889 22.6237 46.6669L18.2131 44.3489C17.5562 44.0158 17.869 43.9048 18.088 43.8354C18.9638 43.5578 19.1515 43.5023 20.0899 43.0304C20.1838 42.9748 20.3245 43.0026 20.4184 43.0581L23.8123 44.8486C23.9374 44.9041 24.1095 44.9041 24.219 44.8486L37.435 38.0753C37.5601 38.0197 37.6383 37.8809 37.6383 37.756V24.2232C37.6383 24.0844 37.5601 23.9733 37.435 23.9039L24.219 17.1444C24.0938 17.075 23.9374 17.075 23.8123 17.1444L10.6119 23.9039C10.4868 23.9733 10.4086 24.0982 10.4086 24.2232V37.756C10.4086 37.8809 10.4868 38.0059 10.6119 38.0753L14.2248 39.9352C16.1955 40.8096 17.3842 39.7825 17.3842 38.7554V25.3891C17.3842 25.1948 17.5562 25.056 17.7752 25.056H19.4487C19.652 25.056 19.824 25.2086 19.824 25.3891V38.7415C19.824 41.0733 18.4008 42.4058 15.914 42.4058C15.1476 42.4058 14.5533 42.4058 12.8641 41.6701L9.39199 39.8935C8.53177 39.4494 8 38.6304 8 37.756V24.2232C8 23.3487 8.53177 22.5298 9.39199 22.0857L22.608 15.3123C23.437 14.8959 24.563 14.8959 25.392 15.3123L38.608 22.0857C39.4682 22.5298 40 23.3487 40 24.2232V37.756C40 38.6304 39.4682 39.4494 38.608 39.8935L25.392 46.6669C24.9853 46.8751 24.5005 47 24.0156 47Z" fill="#87C041"/>
<path d="M24.0156 47C23.5308 47 23.0459 46.889 22.6237 46.6669L18.2131 44.3489C17.5562 44.0158 17.869 43.9048 18.088 43.8354C18.9638 43.5578 19.1515 43.5023 20.0899 43.0304C20.1838 42.9748 20.3245 43.0026 20.4184 43.0581L23.8123 44.8486C23.9374 44.9041 24.1095 44.9041 24.219 44.8486L37.435 38.0753C37.5601 38.0197 37.6383 37.8809 37.6383 37.756V24.2232C37.6383 24.0844 37.5601 23.9733 37.435 23.9039L24.219 17.1444C24.0938 17.075 23.9374 17.075 23.8123 17.1444L10.6119 23.9039C10.4868 23.9733 10.4086 24.0982 10.4086 24.2232V37.756C10.4086 37.8809 10.4868 38.0059 10.6119 38.0753L14.2248 39.9352C16.1955 40.8096 17.3842 39.7825 17.3842 38.7554V25.3891C17.3842 25.1948 17.5562 25.056 17.7752 25.056H19.4487C19.652 25.056 19.824 25.2086 19.824 25.3891V38.7415C19.824 41.0733 18.4008 42.4058 15.914 42.4058C15.1476 42.4058 14.5533 42.4058 12.8641 41.6701L9.39199 39.8935C8.53177 39.4494 8 38.6304 8 37.756V24.2232C8 23.3487 8.53177 22.5298 9.39199 22.0857L22.608 15.3123C23.437 14.8959 24.563 14.8959 25.392 15.3123L38.608 22.0857C39.4682 22.5298 40 23.3487 40 24.2232V37.756C40 38.6304 39.4682 39.4494 38.608 39.8935L25.392 46.6669C24.9853 46.8751 24.5005 47 24.0156 47Z" fill="#87C041"/>
<path d="M24.0156 47C23.5308 47 23.0459 46.889 22.6237 46.6669L18.2131 44.3489C17.5562 44.0158 17.869 43.9048 18.088 43.8354C18.9638 43.5578 19.1515 43.5023 20.0899 43.0304C20.1838 42.9748 20.3245 43.0026 20.4184 43.0581L23.8123 44.8486C23.9374 44.9041 24.1095 44.9041 24.219 44.8486L37.435 38.0753C37.5601 38.0197 37.6383 37.8809 37.6383 37.756V24.2232C37.6383 24.0844 37.5601 23.9733 37.435 23.9039L24.219 17.1444C24.0938 17.075 23.9374 17.075 23.8123 17.1444L10.6119 23.9039C10.4868 23.9733 10.4086 24.0982 10.4086 24.2232V37.756C10.4086 37.8809 10.4868 38.0059 10.6119 38.0753L14.2248 39.9352C16.1955 40.8096 17.3842 39.7825 17.3842 38.7554V25.3891C17.3842 25.1948 17.5562 25.056 17.7752 25.056H19.4487C19.652 25.056 19.824 25.2086 19.824 25.3891V38.7415C19.824 41.0733 18.4008 42.4058 15.914 42.4058C15.1476 42.4058 14.5533 42.4058 12.8641 41.6701L9.39199 39.8935C8.53177 39.4494 8 38.6304 8 37.756V24.2232C8 23.3487 8.53177 22.5298 9.39199 22.0857L22.608 15.3123C23.437 14.8959 24.563 14.8959 25.392 15.3123L38.608 22.0857C39.4682 22.5298 40 23.3487 40 24.2232V37.756C40 38.6304 39.4682 39.4494 38.608 39.8935L25.392 46.6669C24.9853 46.8751 24.5005 47 24.0156 47Z" fill="#87C041"/>
<path d="M24.0156 47C23.5308 47 23.0459 46.889 22.6237 46.6669L18.2131 44.3489C17.5562 44.0158 17.869 43.9048 18.088 43.8354C18.9638 43.5578 19.1515 43.5023 20.0899 43.0304C20.1838 42.9748 20.3245 43.0026 20.4184 43.0581L23.8123 44.8486C23.9374 44.9041 24.1095 44.9041 24.219 44.8486L37.435 38.0753C37.5601 38.0197 37.6383 37.8809 37.6383 37.756V24.2232C37.6383 24.0844 37.5601 23.9733 37.435 23.9039L24.219 17.1444C24.0938 17.075 23.9374 17.075 23.8123 17.1444L10.6119 23.9039C10.4868 23.9733 10.4086 24.0982 10.4086 24.2232V37.756C10.4086 37.8809 10.4868 38.0059 10.6119 38.0753L14.2248 39.9352C16.1955 40.8096 17.3842 39.7825 17.3842 38.7554V25.3891C17.3842 25.1948 17.5562 25.056 17.7752 25.056H19.4487C19.652 25.056 19.824 25.2086 19.824 25.3891V38.7415C19.824 41.0733 18.4008 42.4058 15.914 42.4058C15.1476 42.4058 14.5533 42.4058 12.8641 41.6701L9.39199 39.8935C8.53177 39.4494 8 38.6304 8 37.756V24.2232C8 23.3487 8.53177 22.5298 9.39199 22.0857L22.608 15.3123C23.437 14.8959 24.563 14.8959 25.392 15.3123L38.608 22.0857C39.4682 22.5298 40 23.3487 40 24.2232V37.756C40 38.6304 39.4682 39.4494 38.608 39.8935L25.392 46.6669C24.9853 46.8751 24.5005 47 24.0156 47Z" fill="#87C041"/>
<path d="M24.0156 47C23.5308 47 23.0459 46.889 22.6237 46.6669L18.2131 44.3489C17.5562 44.0158 17.869 43.9048 18.088 43.8354C18.9638 43.5578 19.1515 43.5023 20.0899 43.0304C20.1838 42.9748 20.3245 43.0026 20.4184 43.0581L23.8123 44.8486C23.9374 44.9041 24.1095 44.9041 24.219 44.8486L37.435 38.0753C37.5601 38.0197 37.6383 37.8809 37.6383 37.756V24.2232C37.6383 24.0844 37.5601 23.9733 37.435 23.9039L24.219 17.1444C24.0938 17.075 23.9374 17.075 23.8123 17.1444L10.6119 23.9039C10.4868 23.9733 10.4086 24.0982 10.4086 24.2232V37.756C10.4086 37.8809 10.4868 38.0059 10.6119 38.0753L14.2248 39.9352C16.1955 40.8096 17.3842 39.7825 17.3842 38.7554V25.3891C17.3842 25.1948 17.5562 25.056 17.7752 25.056H19.4487C19.652 25.056 19.824 25.2086 19.824 25.3891V38.7415C19.824 41.0733 18.4008 42.4058 15.914 42.4058C15.1476 42.4058 14.5533 42.4058 12.8641 41.6701L9.39199 39.8935C8.53177 39.4494 8 38.6304 8 37.756V24.2232C8 23.3487 8.53177 22.5298 9.39199 22.0857L22.608 15.3123C23.437 14.8959 24.563 14.8959 25.392 15.3123L38.608 22.0857C39.4682 22.5298 40 23.3487 40 24.2232V37.756C40 38.6304 39.4682 39.4494 38.608 39.8935L25.392 46.6669C24.9853 46.8751 24.5005 47 24.0156 47Z" fill="#87C041"/>
<path d="M24.0156 47C23.5308 47 23.0459 46.889 22.6237 46.6669L18.2131 44.3489C17.5562 44.0158 17.869 43.9048 18.088 43.8354C18.9638 43.5578 19.1515 43.5023 20.0899 43.0304C20.1838 42.9748 20.3245 43.0026 20.4184 43.0581L23.8123 44.8486C23.9374 44.9041 24.1095 44.9041 24.219 44.8486L37.435 38.0753C37.5601 38.0197 37.6383 37.8809 37.6383 37.756V24.2232C37.6383 24.0844 37.5601 23.9733 37.435 23.9039L24.219 17.1444C24.0938 17.075 23.9374 17.075 23.8123 17.1444L10.6119 23.9039C10.4868 23.9733 10.4086 24.0982 10.4086 24.2232V37.756C10.4086 37.8809 10.4868 38.0059 10.6119 38.0753L14.2248 39.9352C16.1955 40.8096 17.3842 39.7825 17.3842 38.7554V25.3891C17.3842 25.1948 17.5562 25.056 17.7752 25.056H19.4487C19.652 25.056 19.824 25.2086 19.824 25.3891V38.7415C19.824 41.0733 18.4008 42.4058 15.914 42.4058C15.1476 42.4058 14.5533 42.4058 12.8641 41.6701L9.39199 39.8935C8.53177 39.4494 8 38.6304 8 37.756V24.2232C8 23.3487 8.53177 22.5298 9.39199 22.0857L22.608 15.3123C23.437 14.8959 24.563 14.8959 25.392 15.3123L38.608 22.0857C39.4682 22.5298 40 23.3487 40 24.2232V37.756C40 38.6304 39.4682 39.4494 38.608 39.8935L25.392 46.6669C24.9853 46.8751 24.5005 47 24.0156 47Z" fill="#87C041"/>
<path d="M24.0156 47C23.5308 47 23.0459 46.889 22.6237 46.6669L18.2131 44.3489C17.5562 44.0158 17.869 43.9048 18.088 43.8354C18.9638 43.5578 19.1515 43.5023 20.0899 43.0304C20.1838 42.9748 20.3245 43.0026 20.4184 43.0581L23.8123 44.8486C23.9374 44.9041 24.1095 44.9041 24.219 44.8486L37.435 38.0753C37.5601 38.0197 37.6383 37.8809 37.6383 37.756V24.2232C37.6383 24.0844 37.5601 23.9733 37.435 23.9039L24.219 17.1444C24.0938 17.075 23.9374 17.075 23.8123 17.1444L10.6119 23.9039C10.4868 23.9733 10.4086 24.0982 10.4086 24.2232V37.756C10.4086 37.8809 10.4868 38.0059 10.6119 38.0753L14.2248 39.9352C16.1955 40.8096 17.3842 39.7825 17.3842 38.7554V25.3891C17.3842 25.1948 17.5562 25.056 17.7752 25.056H19.4487C19.652 25.056 19.824 25.2086 19.824 25.3891V38.7415C19.824 41.0733 18.4008 42.4058 15.914 42.4058C15.1476 42.4058 14.5533 42.4058 12.8641 41.6701L9.39199 39.8935C8.53177 39.4494 8 38.6304 8 37.756V24.2232C8 23.3487 8.53177 22.5298 9.39199 22.0857L22.608 15.3123C23.437 14.8959 24.563 14.8959 25.392 15.3123L38.608 22.0857C39.4682 22.5298 40 23.3487 40 24.2232V37.756C40 38.6304 39.4682 39.4494 38.608 39.8935L25.392 46.6669C24.9853 46.8751 24.5005 47 24.0156 47Z" fill="#87C041"/>
<path d="M24.0156 47C23.5308 47 23.0459 46.889 22.6237 46.6669L18.2131 44.3489C17.5562 44.0158 17.869 43.9048 18.088 43.8354C18.9638 43.5578 19.1515 43.5023 20.0899 43.0304C20.1838 42.9748 20.3245 43.0026 20.4184 43.0581L23.8123 44.8486C23.9374 44.9041 24.1095 44.9041 24.219 44.8486L37.435 38.0753C37.5601 38.0197 37.6383 37.8809 37.6383 37.756V24.2232C37.6383 24.0844 37.5601 23.9733 37.435 23.9039L24.219 17.1444C24.0938 17.075 23.9374 17.075 23.8123 17.1444L10.6119 23.9039C10.4868 23.9733 10.4086 24.0982 10.4086 24.2232V37.756C10.4086 37.8809 10.4868 38.0059 10.6119 38.0753L14.2248 39.9352C16.1955 40.8096 17.3842 39.7825 17.3842 38.7554V25.3891C17.3842 25.1948 17.5562 25.056 17.7752 25.056H19.4487C19.652 25.056 19.824 25.2086 19.824 25.3891V38.7415C19.824 41.0733 18.4008 42.4058 15.914 42.4058C15.1476 42.4058 14.5533 42.4058 12.8641 41.6701L9.39199 39.8935C8.53177 39.4494 8 38.6304 8 37.756V24.2232C8 23.3487 8.53177 22.5298 9.39199 22.0857L22.608 15.3123C23.437 14.8959 24.563 14.8959 25.392 15.3123L38.608 22.0857C39.4682 22.5298 40 23.3487 40 24.2232V37.756C40 38.6304 39.4682 39.4494 38.608 39.8935L25.392 46.6669C24.9853 46.8751 24.5005 47 24.0156 47Z" fill="#87C041"/>
<path d="M24.0156 47C23.5308 47 23.0459 46.889 22.6237 46.6669L18.2131 44.3489C17.5562 44.0158 17.869 43.9048 18.088 43.8354C18.9638 43.5578 19.1515 43.5023 20.0899 43.0304C20.1838 42.9748 20.3245 43.0026 20.4184 43.0581L23.8123 44.8486C23.9374 44.9041 24.1095 44.9041 24.219 44.8486L37.435 38.0753C37.5601 38.0197 37.6383 37.8809 37.6383 37.756V24.2232C37.6383 24.0844 37.5601 23.9733 37.435 23.9039L24.219 17.1444C24.0938 17.075 23.9374 17.075 23.8123 17.1444L10.6119 23.9039C10.4868 23.9733 10.4086 24.0982 10.4086 24.2232V37.756C10.4086 37.8809 10.4868 38.0059 10.6119 38.0753L14.2248 39.9352C16.1955 40.8096 17.3842 39.7825 17.3842 38.7554V25.3891C17.3842 25.1948 17.5562 25.056 17.7752 25.056H19.4487C19.652 25.056 19.824 25.2086 19.824 25.3891V38.7415C19.824 41.0733 18.4008 42.4058 15.914 42.4058C15.1476 42.4058 14.5533 42.4058 12.8641 41.6701L9.39199 39.8935C8.53177 39.4494 8 38.6304 8 37.756V24.2232C8 23.3487 8.53177 22.5298 9.39199 22.0857L22.608 15.3123C23.437 14.8959 24.563 14.8959 25.392 15.3123L38.608 22.0857C39.4682 22.5298 40 23.3487 40 24.2232V37.756C40 38.6304 39.4682 39.4494 38.608 39.8935L25.392 46.6669C24.9853 46.8751 24.5005 47 24.0156 47Z" fill="#87C041"/>
<path d="M24.0156 47C23.5308 47 23.0459 46.889 22.6237 46.6669L18.2131 44.3489C17.5562 44.0158 17.869 43.9048 18.088 43.8354C18.9638 43.5578 19.1515 43.5023 20.0899 43.0304C20.1838 42.9748 20.3245 43.0026 20.4184 43.0581L23.8123 44.8486C23.9374 44.9041 24.1095 44.9041 24.219 44.8486L37.435 38.0753C37.5601 38.0197 37.6383 37.8809 37.6383 37.756V24.2232C37.6383 24.0844 37.5601 23.9733 37.435 23.9039L24.219 17.1444C24.0938 17.075 23.9374 17.075 23.8123 17.1444L10.6119 23.9039C10.4868 23.9733 10.4086 24.0982 10.4086 24.2232V37.756C10.4086 37.8809 10.4868 38.0059 10.6119 38.0753L14.2248 39.9352C16.1955 40.8096 17.3842 39.7825 17.3842 38.7554V25.3891C17.3842 25.1948 17.5562 25.056 17.7752 25.056H19.4487C19.652 25.056 19.824 25.2086 19.824 25.3891V38.7415C19.824 41.0733 18.4008 42.4058 15.914 42.4058C15.1476 42.4058 14.5533 42.4058 12.8641 41.6701L9.39199 39.8935C8.53177 39.4494 8 38.6304 8 37.756V24.2232C8 23.3487 8.53177 22.5298 9.39199 22.0857L22.608 15.3123C23.437 14.8959 24.563 14.8959 25.392 15.3123L38.608 22.0857C39.4682 22.5298 40 23.3487 40 24.2232V37.756C40 38.6304 39.4682 39.4494 38.608 39.8935L25.392 46.6669C24.9853 46.8751 24.5005 47 24.0156 47Z" fill="#87C041"/>
<path d="M24.0156 47C23.5308 47 23.0459 46.889 22.6237 46.6669L18.2131 44.3489C17.5562 44.0158 17.869 43.9048 18.088 43.8354C18.9638 43.5578 19.1515 43.5023 20.0899 43.0304C20.1838 42.9748 20.3245 43.0026 20.4184 43.0581L23.8123 44.8486C23.9374 44.9041 24.1095 44.9041 24.219 44.8486L37.435 38.0753C37.5601 38.0197 37.6383 37.8809 37.6383 37.756V24.2232C37.6383 24.0844 37.5601 23.9733 37.435 23.9039L24.219 17.1444C24.0938 17.075 23.9374 17.075 23.8123 17.1444L10.6119 23.9039C10.4868 23.9733 10.4086 24.0982 10.4086 24.2232V37.756C10.4086 37.8809 10.4868 38.0059 10.6119 38.0753L14.2248 39.9352C16.1955 40.8096 17.3842 39.7825 17.3842 38.7554V25.3891C17.3842 25.1948 17.5562 25.056 17.7752 25.056H19.4487C19.652 25.056 19.824 25.2086 19.824 25.3891V38.7415C19.824 41.0733 18.4008 42.4058 15.914 42.4058C15.1476 42.4058 14.5533 42.4058 12.8641 41.6701L9.39199 39.8935C8.53177 39.4494 8 38.6304 8 37.756V24.2232C8 23.3487 8.53177 22.5298 9.39199 22.0857L22.608 15.3123C23.437 14.8959 24.563 14.8959 25.392 15.3123L38.608 22.0857C39.4682 22.5298 40 23.3487 40 24.2232V37.756C40 38.6304 39.4682 39.4494 38.608 39.8935L25.392 46.6669C24.9853 46.8751 24.5005 47 24.0156 47Z" fill="#87C041"/>
<path d="M24.0156 47C23.5308 47 23.0459 46.889 22.6237 46.6669L18.2131 44.3489C17.5562 44.0158 17.869 43.9048 18.088 43.8354C18.9638 43.5578 19.1515 43.5023 20.0899 43.0304C20.1838 42.9748 20.3245 43.0026 20.4184 43.0581L23.8123 44.8486C23.9374 44.9041 24.1095 44.9041 24.219 44.8486L37.435 38.0753C37.5601 38.0197 37.6383 37.8809 37.6383 37.756V24.2232C37.6383 24.0844 37.5601 23.9733 37.435 23.9039L24.219 17.1444C24.0938 17.075 23.9374 17.075 23.8123 17.1444L10.6119 23.9039C10.4868 23.9733 10.4086 24.0982 10.4086 24.2232V37.756C10.4086 37.8809 10.4868 38.0059 10.6119 38.0753L14.2248 39.9352C16.1955 40.8096 17.3842 39.7825 17.3842 38.7554V25.3891C17.3842 25.1948 17.5562 25.056 17.7752 25.056H19.4487C19.652 25.056 19.824 25.2086 19.824 25.3891V38.7415C19.824 41.0733 18.4008 42.4058 15.914 42.4058C15.1476 42.4058 14.5533 42.4058 12.8641 41.6701L9.39199 39.8935C8.53177 39.4494 8 38.6304 8 37.756V24.2232C8 23.3487 8.53177 22.5298 9.39199 22.0857L22.608 15.3123C23.437 14.8959 24.563 14.8959 25.392 15.3123L38.608 22.0857C39.4682 22.5298 40 23.3487 40 24.2232V37.756C40 38.6304 39.4682 39.4494 38.608 39.8935L25.392 46.6669C24.9853 46.8751 24.5005 47 24.0156 47Z" fill="#87C041"/>
<path d="M24.0156 47C23.5308 47 23.0459 46.889 22.6237 46.6669L18.2131 44.3489C17.5562 44.0158 17.869 43.9048 18.088 43.8354C18.9638 43.5578 19.1515 43.5023 20.0899 43.0304C20.1838 42.9748 20.3245 43.0026 20.4184 43.0581L23.8123 44.8486C23.9374 44.9041 24.1095 44.9041 24.219 44.8486L37.435 38.0753C37.5601 38.0197 37.6383 37.8809 37.6383 37.756V24.2232C37.6383 24.0844 37.5601 23.9733 37.435 23.9039L24.219 17.1444C24.0938 17.075 23.9374 17.075 23.8123 17.1444L10.6119 23.9039C10.4868 23.9733 10.4086 24.0982 10.4086 24.2232V37.756C10.4086 37.8809 10.4868 38.0059 10.6119 38.0753L14.2248 39.9352C16.1955 40.8096 17.3842 39.7825 17.3842 38.7554V25.3891C17.3842 25.1948 17.5562 25.056 17.7752 25.056H19.4487C19.652 25.056 19.824 25.2086 19.824 25.3891V38.7415C19.824 41.0733 18.4008 42.4058 15.914 42.4058C15.1476 42.4058 14.5533 42.4058 12.8641 41.6701L9.39199 39.8935C8.53177 39.4494 8 38.6304 8 37.756V24.2232C8 23.3487 8.53177 22.5298 9.39199 22.0857L22.608 15.3123C23.437 14.8959 24.563 14.8959 25.392 15.3123L38.608 22.0857C39.4682 22.5298 40 23.3487 40 24.2232V37.756C40 38.6304 39.4682 39.4494 38.608 39.8935L25.392 46.6669C24.9853 46.8751 24.5005 47 24.0156 47Z" fill="#87C041"/>
<path d="M24.0156 47C23.5308 47 23.0459 46.889 22.6237 46.6669L18.2131 44.3489C17.5562 44.0158 17.869 43.9048 18.088 43.8354C18.9638 43.5578 19.1515 43.5023 20.0899 43.0304C20.1838 42.9748 20.3245 43.0026 20.4184 43.0581L23.8123 44.8486C23.9374 44.9041 24.1095 44.9041 24.219 44.8486L37.435 38.0753C37.5601 38.0197 37.6383 37.8809 37.6383 37.756V24.2232C37.6383 24.0844 37.5601 23.9733 37.435 23.9039L24.219 17.1444C24.0938 17.075 23.9374 17.075 23.8123 17.1444L10.6119 23.9039C10.4868 23.9733 10.4086 24.0982 10.4086 24.2232V37.756C10.4086 37.8809 10.4868 38.0059 10.6119 38.0753L14.2248 39.9352C16.1955 40.8096 17.3842 39.7825 17.3842 38.7554V25.3891C17.3842 25.1948 17.5562 25.056 17.7752 25.056H19.4487C19.652 25.056 19.824 25.2086 19.824 25.3891V38.7415C19.824 41.0733 18.4008 42.4058 15.914 42.4058C15.1476 42.4058 14.5533 42.4058 12.8641 41.6701L9.39199 39.8935C8.53177 39.4494 8 38.6304 8 37.756V24.2232C8 23.3487 8.53177 22.5298 9.39199 22.0857L22.608 15.3123C23.437 14.8959 24.563 14.8959 25.392 15.3123L38.608 22.0857C39.4682 22.5298 40 23.3487 40 24.2232V37.756C40 38.6304 39.4682 39.4494 38.608 39.8935L25.392 46.6669C24.9853 46.8751 24.5005 47 24.0156 47Z" fill="#87C041"/>
<path d="M27.9205 37.72C22.1336 37.72 20.9293 35.3371 20.9293 33.3467C20.9293 33.1504 21.1013 33.0103 21.3047 33.0103H23.0095C23.1971 33.0103 23.3535 33.1364 23.3848 33.3046C23.6351 34.8605 24.4171 35.6455 27.9049 35.6455C30.6888 35.6455 31.8775 35.0848 31.8775 33.7532C31.8775 32.9962 31.549 32.4215 27.2167 32.0431C23.6038 31.7207 21.3672 31.0058 21.3672 28.4126C21.3672 26.0297 23.6194 24.6 27.3887 24.6C31.6272 24.6 33.723 25.9176 33.9889 28.735C34.0046 28.8332 33.9576 28.9313 33.8951 29.0014C33.8169 29.0715 33.723 29.1135 33.6136 29.1135H31.8931C31.7211 29.1135 31.5647 29.0014 31.5178 28.8472C31.1111 27.2072 30.1101 26.6885 27.3887 26.6885C24.3545 26.6885 23.9948 27.6417 23.9948 28.3426C23.9948 29.1976 24.4171 29.4499 28.5148 29.9405C32.5813 30.4171 34.5051 31.1039 34.5051 33.655C34.5051 36.2342 32.0965 37.72 27.9205 37.72Z" fill="#87C041"/>
<path d="M4.5 0L5.51031 3.10942H8.77975L6.13472 5.03115L7.14503 8.14058L4.5 6.21885L1.85497 8.14058L2.86528 5.03115L0.220246 3.10942H3.48969L4.5 0Z" fill="#FFC107"/>
<path d="M14.5 0L15.5103 3.10942H18.7798L16.1347 5.03115L17.145 8.14058L14.5 6.21885L11.855 8.14058L12.8653 5.03115L10.2202 3.10942H13.4897L14.5 0Z" fill="#FFC107"/>
<path d="M24.5 0L25.5103 3.10942H28.7798L26.1347 5.03115L27.145 8.14058L24.5 6.21885L21.855 8.14058L22.8653 5.03115L20.2202 3.10942H23.4897L24.5 0Z" fill="#FFC107"/>
<path d="M34.5 0L35.5103 3.10942H38.7798L36.1347 5.03115L37.145 8.14058L34.5 6.21885L31.855 8.14058L32.8653 5.03115L30.2202 3.10942H33.4897L34.5 0Z" fill="#FFC107"/>
<path d="M44.5 0L45.5103 3.10942H48.7798L46.1347 5.03115L47.145 8.14058L44.5 6.21885L41.855 8.14058L42.8653 5.03115L40.2202 3.10942H43.4897L44.5 0Z" fill="#FFC107"/>
</svg>
