<svg width="49" height="46" viewBox="0 0 49 46" fill="none" xmlns="http://www.w3.org/2000/svg">
<g clip-path="url(#clip0_104_19)">
<path d="M39.68 26.7891H29.0437C28.5102 26.7891 28.0769 26.3798 28.0769 25.8758V15.4045C28.0769 14.629 27.4111 14 26.5908 14H22.7938C21.9729 14 21.3077 14.629 21.3077 15.4045V25.8125C21.3077 26.3525 20.8455 26.7914 20.2738 26.7938L16.7883 26.8094C16.2117 26.8124 15.7434 26.3705 15.7446 25.8264L15.7662 15.4068C15.768 14.6302 15.1022 14 14.28 14H10.4862C9.66523 14 9 14.629 9 15.4045V44.7258C9 45.4147 9.59077 45.9727 10.3194 45.9727H39.68C40.4092 45.9727 41 45.4147 41 44.7258V28.036C41 27.3472 40.4092 26.7891 39.68 26.7891ZM34.6923 37.7982C34.6923 38.701 33.9175 39.4329 32.9618 39.4329H29.9612C29.0055 39.4329 28.2308 38.701 28.2308 37.7982V34.9637C28.2308 34.0609 29.0055 33.329 29.9612 33.329H32.9618C33.9175 33.329 34.6923 34.0609 34.6923 34.9637V37.7982Z" fill="#FF6600"/>
</g>
<path d="M4.5 0L5.51031 3.10942H8.77975L6.13472 5.03115L7.14503 8.14058L4.5 6.21885L1.85497 8.14058L2.86528 5.03115L0.220246 3.10942H3.48969L4.5 0Z" fill="#FFC107"/>
<path d="M14.5 0L15.5103 3.10942H18.7798L16.1347 5.03115L17.145 8.14058L14.5 6.21885L11.855 8.14058L12.8653 5.03115L10.2202 3.10942H13.4897L14.5 0Z" fill="#FFC107"/>
<path d="M24.5 0L25.5103 3.10942H28.7798L26.1347 5.03115L27.145 8.14058L24.5 6.21885L21.855 8.14058L22.8653 5.03115L20.2202 3.10942H23.4897L24.5 0Z" fill="#FFC107"/>
<path d="M34.5 0L35.5103 3.10942H38.7798L36.1347 5.03115L37.145 8.14058L34.5 6.21885L31.855 8.14058L32.8653 5.03115L30.2202 3.10942H33.4897L34.5 0Z" fill="#FFC107"/>
<path d="M44.5 0L45.5103 3.10942H48.7798L46.1347 5.03115L47.145 8.14058L44.5 6.21885L41.855 8.14058L42.8653 5.03115L40.2202 3.10942H43.4897L44.5 0Z" fill="#FFC107"/>
<defs>
<clipPath id="clip0_104_19">
<rect width="32" height="32" fill="white" transform="translate(9 14)"/>
</clipPath>
</defs>
</svg>
