<svg width="49" height="47" viewBox="0 0 49 47" fill="none" xmlns="http://www.w3.org/2000/svg">
<path d="M34.3104 25.3718C33.9785 25.2434 33.6345 25.1219 33.2803 25.0069C33.3385 24.7399 33.3919 24.4764 33.4395 24.2173C34.2192 19.9629 33.7094 16.5356 31.9684 15.4072C30.299 14.3252 27.5689 15.4534 24.8116 18.1504C24.5465 18.4098 24.2806 18.6843 24.0148 18.9721C23.8377 18.7817 23.6609 18.5977 23.4846 18.4217C20.5948 15.5379 17.6983 14.3226 15.9591 15.4543C14.2913 16.5394 13.7974 19.7614 14.4993 23.7933C14.5671 24.1827 14.6463 24.5804 14.7359 24.9847C14.326 25.1155 13.9302 25.255 13.5516 25.4033C10.1637 26.7309 8 28.8115 8 30.9697C8 33.1987 10.3227 35.4344 13.8515 36.79C14.1299 36.897 14.4189 36.9981 14.7167 37.0942C14.62 37.5315 14.5359 37.96 14.4654 38.378C13.7961 42.3399 14.3188 45.4858 15.9821 46.5641C17.7002 47.6776 20.5836 46.533 23.3913 43.7745C23.6132 43.5565 23.8359 43.3252 24.059 43.0829C24.3482 43.3958 24.6369 43.6921 24.9241 43.9699C27.6437 46.6003 30.3297 47.6625 31.9915 46.5812C33.7079 45.4644 34.2657 42.085 33.5415 37.9734C33.4862 37.6593 33.4219 37.3385 33.3496 37.012C33.5521 36.9447 33.7509 36.8753 33.9447 36.8031C37.6132 35.437 40 33.2285 40 30.9697C40 28.8037 37.7666 26.709 34.3104 25.3718ZM33.5148 35.3446C33.3398 35.4097 33.1602 35.4727 32.9773 35.5337C32.5723 34.0927 32.0257 32.5603 31.3568 30.9772C31.9951 29.4318 32.5206 27.919 32.9142 26.4873C33.2416 26.5938 33.5593 26.7061 33.8655 26.8246C36.8267 27.9704 38.633 29.6644 38.633 30.9697C38.633 32.3601 36.6822 34.165 33.5148 35.3446ZM32.2005 38.2718C32.5207 40.0899 32.5664 41.7336 32.3543 43.0186C32.1637 44.1733 31.7804 44.9431 31.3065 45.2515C30.2981 45.9075 28.1415 45.0547 25.8156 42.8052C25.549 42.5473 25.2805 42.272 25.011 41.9806C25.9127 40.8722 26.8139 39.5837 27.6934 38.1526C29.2403 37.9983 30.7019 37.7461 32.0273 37.4017C32.0925 37.6977 32.1505 37.988 32.2005 38.2718ZM18.9095 45.1381C17.9242 45.5292 17.1395 45.5404 16.6651 45.233C15.6558 44.5786 15.2361 42.0528 15.8085 38.6646C15.8741 38.2766 15.9521 37.878 16.0421 37.4705C17.3529 37.7963 18.8037 38.0308 20.3544 38.1721C21.2399 39.5724 22.167 40.8595 23.1014 41.9865C22.8973 42.208 22.6939 42.4189 22.4917 42.6176C21.2502 43.8374 20.006 44.7028 18.9095 45.1381ZM14.2936 35.3361C12.7332 34.7367 11.4446 33.9576 10.5614 33.1075C9.76768 32.3436 9.36697 31.5851 9.36697 30.9697C9.36697 29.66 11.1042 27.9896 14.0015 26.8542C14.3531 26.7164 14.7211 26.5866 15.103 26.4646C15.5035 27.9286 16.0287 29.4593 16.6626 31.0071C16.0205 32.5779 15.4878 34.1329 15.0834 35.6141C14.8112 35.5261 14.5474 35.4336 14.2936 35.3361ZM15.8409 23.4982C15.2395 20.0438 15.6389 17.4379 16.644 16.784C17.7145 16.0874 20.0818 17.0806 22.5769 19.5707C22.7364 19.7298 22.8965 19.8964 23.057 20.0688C22.1273 21.1908 21.2086 22.4683 20.331 23.8604C18.826 24.0171 17.3854 24.269 16.0609 24.6062C15.9776 24.2297 15.9038 23.8598 15.8409 23.4982ZM29.6442 27.3291C29.3276 26.7144 29.0025 26.1142 28.6711 25.5304C29.6921 25.6754 30.6704 25.868 31.589 26.1037C31.3132 27.0971 30.9695 28.1359 30.5648 29.2007C30.2746 28.5813 29.9675 27.9568 29.6442 27.3291ZM24.0153 21.1668C24.6458 21.9346 25.2773 22.7919 25.8983 23.7219C25.2725 23.6887 24.6389 23.6714 24 23.6714C23.3672 23.6714 22.7382 23.6883 22.1162 23.721C22.7379 22.7995 23.3749 21.9435 24.0153 21.1668ZM18.3502 27.3397C18.0339 27.9562 17.7326 28.5773 17.4469 29.1996C17.0488 28.1384 16.7083 27.095 16.4301 26.0874C17.3431 25.8578 18.3167 25.67 19.3312 25.5277C18.9951 26.1169 18.6674 26.7216 18.3502 27.3397ZM19.3604 36.5213C18.3122 36.3899 17.324 36.2118 16.4112 35.9885C16.6939 34.9629 17.0419 33.8972 17.4485 32.8132C17.7349 33.435 18.0374 34.0564 18.3556 34.6742C18.6798 35.3036 19.0157 35.9201 19.3604 36.5213ZM24.0531 40.8809C23.4052 40.0952 22.7589 39.226 22.1277 38.2912C22.7405 38.3182 23.3651 38.332 24 38.332C24.6522 38.332 25.297 38.3155 25.9317 38.2837C25.3085 39.2354 24.6794 40.1059 24.0531 40.8809ZM30.5779 32.758C31.0056 33.8537 31.3661 34.9138 31.6524 35.9219C30.7246 36.1598 29.7228 36.3514 28.6674 36.4938C28.9996 35.9021 29.3275 35.2916 29.6497 34.6637C29.9757 34.0283 30.2852 33.392 30.5779 32.758ZM28.4656 33.8961C27.9654 34.8709 27.4518 35.8015 26.9305 36.6799C25.9809 36.7562 24.9999 36.7955 24 36.7955C23.0042 36.7955 22.0355 36.7608 21.1028 36.6927C20.5604 35.8028 20.0357 34.8694 19.5386 33.9044C19.0429 32.9421 18.5868 31.9716 18.1734 31.0066C18.5867 30.0393 19.0417 29.0677 19.5346 28.1071L19.5345 28.1073C20.0287 27.1441 20.5488 26.2153 21.0861 25.331C22.0378 25.2501 23.0137 25.2079 23.9999 25.2079C24.9906 25.2079 25.9678 25.2504 26.9192 25.332C27.4484 26.2099 27.965 27.1357 28.4611 28.099C28.9628 29.0731 29.4237 30.0382 29.8406 30.9847C29.425 31.9475 28.9651 32.9224 28.4656 33.8961ZM31.2856 16.7383C32.3572 17.4329 32.7739 20.234 32.1006 23.9072C32.0577 24.1415 32.0093 24.3803 31.9568 24.6222C30.6292 24.2779 29.1875 24.0217 27.6782 23.8625C26.7989 22.4552 25.8877 21.1757 24.9731 20.0681C25.219 19.8022 25.4645 19.5487 25.7091 19.3094C28.0715 16.9986 30.2796 16.0863 31.2856 16.7383ZM24 27.758C25.5781 27.758 26.8575 29.1959 26.8575 30.9697C26.8575 32.7434 25.5781 34.1814 24 34.1814C22.4219 34.1814 21.1425 32.7434 21.1425 30.9697C21.1425 29.1959 22.4219 27.758 24 27.758Z" fill="#00D8FF"/>
<path d="M4.5 0L5.51031 3.10942H8.77975L6.13472 5.03115L7.14503 8.14058L4.5 6.21885L1.85497 8.14058L2.86528 5.03115L0.220246 3.10942H3.48969L4.5 0Z" fill="#FFC107"/>
<path d="M14.5 0L15.5103 3.10942H18.7798L16.1347 5.03115L17.145 8.14058L14.5 6.21885L11.855 8.14058L12.8653 5.03115L10.2202 3.10942H13.4897L14.5 0Z" fill="#FFC107"/>
<path d="M24.5 0L25.5103 3.10942H28.7798L26.1347 5.03115L27.145 8.14058L24.5 6.21885L21.855 8.14058L22.8653 5.03115L20.2202 3.10942H23.4897L24.5 0Z" fill="#FFC107"/>
<path d="M34.5 0L35.5103 3.10942H38.7798L36.1347 5.03115L37.145 8.14058L34.5 6.21885L31.855 8.14058L32.8653 5.03115L30.2202 3.10942H33.4897L34.5 0Z" fill="#FFC107"/>
<path d="M44.5 0L45.5103 3.10942H48.7798L46.1347 5.03115L47.145 8.14058L44.5 6.21885L41.855 8.14058L42.8653 5.03115L40.2202 3.10942H43.4897L44.5 0Z" fill="#FFC107"/>
</svg>
