<svg width="26" height="28" viewBox="0 0 26 28" fill="none" xmlns="http://www.w3.org/2000/svg">
<path d="M8.40122 0V0.778213V4.19187C3.7687 5.99456 0.5 10.4313 0.5 15.6613C0.5 22.4281 6.06983 28 13.0015 28C19.8618 28 25.5 22.4342 25.5 15.6613C25.5 10.4387 22.2085 6.00721 17.6049 4.19799V0H8.40122ZM9.97775 1.55643H16.0284V3.70248C15.0626 3.46361 14.0598 3.32428 13.0231 3.32254C13.0159 3.32254 13.0087 3.32254 13.0015 3.32254C11.9559 3.32254 10.9472 3.46314 9.97778 3.69936L9.97775 1.55643ZM13.0015 4.88497C13.3653 4.88497 13.7243 4.90387 14.0793 4.93675C14.135 4.94053 14.1898 4.95192 14.2456 4.95948C14.4804 4.98593 14.7114 5.02527 14.9415 5.06571C15.4835 5.16473 16.0156 5.29624 16.5303 5.46998C20.8171 6.91111 23.9296 10.8956 23.9296 15.6625C23.9296 21.5833 18.9984 26.4509 13.0016 26.4509C6.92311 26.4509 2.08273 21.5894 2.08273 15.6625C2.08273 10.8938 5.1338 6.91513 9.43277 5.47298C9.43671 5.47166 9.44113 5.47126 9.44506 5.46986C9.96772 5.29412 10.5089 5.16218 11.0617 5.06248C11.2695 5.02468 11.4779 4.99266 11.6898 4.96847C11.7706 4.95713 11.8514 4.9457 11.9331 4.93814C12.2841 4.90412 12.641 4.88497 13.0015 4.88497ZM12.9892 6.48095C12.9363 6.48329 12.8838 6.49082 12.8324 6.50356C7.80324 6.59276 3.8248 10.5998 3.73336 15.4924C3.70707 15.6065 3.70707 15.7249 3.73336 15.839C3.8269 20.6714 7.71339 24.6341 12.6569 24.8126C12.6579 24.8136 12.659 24.8147 12.66 24.8157C12.7689 24.8683 12.8887 24.8954 13.0099 24.8948C13.1311 24.8943 13.2506 24.8661 13.359 24.8126C18.2934 24.6233 22.2887 20.5776 22.2887 15.6626C22.2887 10.687 18.1957 6.59839 13.1773 6.50368C13.1158 6.48868 13.0526 6.48102 12.9892 6.48095ZM12.201 8.09505C12.2069 8.09444 12.2134 8.09562 12.2195 8.09505V9.5359C12.2125 9.64209 12.2278 9.74856 12.2642 9.84871C12.3006 9.94886 12.3574 10.0406 12.4311 10.1183C12.5049 10.1959 12.5939 10.2578 12.6929 10.3C12.7918 10.3423 12.8984 10.3641 13.0062 10.3641C13.114 10.3641 13.2206 10.3423 13.3195 10.3C13.4184 10.2578 13.5075 10.1959 13.5812 10.1183C13.655 10.0406 13.7118 9.94886 13.7482 9.84871C13.7846 9.74856 13.7998 9.64209 13.7929 9.5359V8.09505C17.4024 8.4628 20.2933 11.3164 20.6657 14.88H19.2031C18.9942 14.8815 18.7944 14.9645 18.6472 15.1108C18.5 15.2572 18.4174 15.455 18.4174 15.6613C18.4174 15.8675 18.5 16.0653 18.6472 16.2117C18.7944 16.358 18.9942 16.441 19.2031 16.4425H20.6657C20.2934 20.0061 17.4024 22.8597 13.7929 23.2273V21.7835C13.7946 21.679 13.7749 21.5752 13.7351 21.4784C13.6952 21.3816 13.636 21.2936 13.561 21.2198C13.486 21.1461 13.3967 21.0881 13.2985 21.0491C13.2003 21.0102 13.0951 20.9911 12.9892 20.9932C12.7813 20.998 12.5836 21.0837 12.4394 21.2317C12.2952 21.3797 12.2162 21.5781 12.2195 21.7835V23.2273C8.54646 22.8713 5.74697 20.0145 5.37747 16.4425H6.8093C7.01818 16.441 7.21799 16.358 7.36516 16.2117C7.51232 16.0653 7.59491 15.8675 7.59491 15.6613C7.59491 15.455 7.51232 15.2572 7.36516 15.1108C7.21799 14.9645 7.01818 14.8815 6.8093 14.88H5.37747C5.74645 11.3138 8.53679 8.45879 12.201 8.09505ZM12.9892 10.9403C12.7812 10.9451 12.5836 11.0309 12.4394 11.1789C12.2952 11.327 12.2161 11.5254 12.2194 11.7307V15.3572C12.1844 15.4977 12.1898 15.6451 12.2349 15.7828C12.2597 15.8985 12.3108 16.007 12.3844 16.1002C12.458 16.1935 12.5521 16.2689 12.6596 16.3209L15.5972 19.2239C15.6694 19.3014 15.7567 19.3635 15.8538 19.4068C15.951 19.45 16.0561 19.4734 16.1626 19.4755C16.2692 19.4776 16.3751 19.4583 16.4739 19.419C16.5728 19.3796 16.6625 19.3209 16.7378 19.2464C16.8131 19.1719 16.8723 19.0832 16.9119 18.9855C16.9515 18.8878 16.9706 18.7832 16.9682 18.678C16.9658 18.5728 16.9418 18.4691 16.8978 18.3733C16.8537 18.2775 16.7905 18.1915 16.7118 18.1205L13.793 15.2386V11.7307C13.7947 11.6262 13.775 11.5224 13.7351 11.4256C13.6953 11.3287 13.6361 11.2408 13.5611 11.1671C13.4861 11.0933 13.3968 11.0352 13.2986 10.9962C13.2004 10.9573 13.0951 10.9383 12.9892 10.9403Z" fill="white"/>
</svg>
