<svg width="49" height="47" viewBox="0 0 49 47" fill="none" xmlns="http://www.w3.org/2000/svg">
<path fill-rule="evenodd" clip-rule="evenodd" d="M11 37.419H15.956L14.42 42H11V37.419ZM11 28.71H18.875L17.34 33.29H11V28.71ZM11 20H21.794L20.259 24.581H11V20ZM26.679 20H39V24.581H25.143L26.679 20ZM22.224 33.291L23.76 28.71H39V33.291H22.224ZM20.841 37.419H39V42H19.305L20.841 37.419Z" fill="#FD5750"/>
<path d="M4.5 0L5.51031 3.10942H8.77975L6.13472 5.03115L7.14503 8.14058L4.5 6.21885L1.85497 8.14058L2.86528 5.03115L0.220246 3.10942H3.48969L4.5 0Z" fill="#FFC107"/>
<path d="M14.5 0L15.5103 3.10942H18.7798L16.1347 5.03115L17.145 8.14058L14.5 6.21885L11.855 8.14058L12.8653 5.03115L10.2202 3.10942H13.4897L14.5 0Z" fill="#FFC107"/>
<path d="M24.5 0L25.5103 3.10942H28.7798L26.1347 5.03115L27.145 8.14058L24.5 6.21885L21.855 8.14058L22.8653 5.03115L20.2202 3.10942H23.4897L24.5 0Z" fill="#FFC107"/>
<path d="M34.5 0L35.5103 3.10942H38.7798L36.1347 5.03115L37.145 8.14058L34.5 6.21885L31.855 8.14058L32.8653 5.03115L30.2202 3.10942H33.4897L34.5 0Z" fill="#FFC107"/>
<path d="M44.5 0L45.5103 3.10942H48.7798L46.1347 5.03115L47.145 8.14058L44.5 6.21885L41.855 8.14058L42.8653 5.03115L40.2202 3.10942H43.4897L44.5 0Z" fill="#FFC107"/>
</svg>
