<svg width="36" height="36" viewBox="0 0 36 36" fill="none" xmlns="http://www.w3.org/2000/svg">
<g clip-path="url(#clip0_120_18)">
<path fill-rule="evenodd" clip-rule="evenodd" d="M13.0909 26H23.7273C25.9855 26 27.8182 23.76 27.8182 21C27.8182 18.24 25.9855 16 23.7273 16H23.6455C23.2527 12.62 20.88 10 18 10C15.7091 10 13.7455 11.66 12.8291 14.04H12.5673C10.0964 14.36 8.18182 16.9 8.18182 20C8.18182 23.32 10.3745 26 13.0909 26ZM32.7273 0H3.27273C1.47273 0 0 1.8 0 4V32C0 34.2 1.47273 36 3.27273 36H32.7273C34.5273 36 36 34.2 36 32V4C36 1.8 34.5273 0 32.7273 0ZM31.0909 32.02H4.90909C4.00909 32.02 3.27273 31.12 3.27273 30.02V5.98C3.27273 4.88 4.00909 3.98 4.90909 3.98H31.0909C31.9909 3.98 32.7273 4.88 32.7273 5.98V30.02C32.7273 31.12 31.9909 32.02 31.0909 32.02Z" fill="white"/>
</g>
<defs>
<clipPath id="clip0_120_18">
<rect width="36" height="36" fill="white"/>
</clipPath>
</defs>
</svg>
