<svg width="49" height="52" viewBox="0 0 49 52" fill="none" xmlns="http://www.w3.org/2000/svg">
<g clip-path="url(#clip0_104_15)">
<path d="M24 20C19.7333 20 17.0667 23.5556 16 30.6667C17.6 27.1111 19.4667 25.7778 21.6 26.6667C22.8172 27.1738 23.6872 28.6455 24.6501 30.2747C26.2188 32.9285 28.0344 36 32 36C36.2667 36 38.9333 32.4444 40 25.3333C38.4 28.8889 36.5333 30.2222 34.4 29.3333C33.1828 28.8262 32.3128 27.3545 31.3499 25.7253C29.7812 23.0715 27.9656 20 24 20ZM16 36C11.7333 36 9.06667 39.5556 8 46.6667C9.6 43.1111 11.4667 41.7778 13.6 42.6667C14.8172 43.1738 15.6872 44.6455 16.6501 46.2747C18.2188 48.9285 20.0344 52 24 52C28.2667 52 30.9333 48.4444 32 41.3333C30.4 44.8889 28.5333 46.2222 26.4 45.3333C25.1828 44.8262 24.3128 43.3545 23.3499 41.7253C21.7812 39.0715 19.9656 36 16 36Z" fill="url(#paint0_linear_104_15)"/>
</g>
<path d="M4.5 0L5.51031 3.10942H8.77975L6.13472 5.03115L7.14503 8.14058L4.5 6.21885L1.85497 8.14058L2.86528 5.03115L0.220246 3.10942H3.48969L4.5 0Z" fill="#FFC107"/>
<path d="M14.5 0L15.5103 3.10942H18.7798L16.1347 5.03115L17.145 8.14058L14.5 6.21885L11.855 8.14058L12.8653 5.03115L10.2202 3.10942H13.4897L14.5 0Z" fill="#FFC107"/>
<path d="M24.5 0L25.5103 3.10942H28.7798L26.1347 5.03115L27.145 8.14058L24.5 6.21885L21.855 8.14058L22.8653 5.03115L20.2202 3.10942H23.4897L24.5 0Z" fill="#FFC107"/>
<path d="M34.5 0L35.5103 3.10942H38.7798L36.1347 5.03115L37.145 8.14058L34.5 6.21885L31.855 8.14058L32.8653 5.03115L30.2202 3.10942H33.4897L34.5 0Z" fill="#FFC107"/>
<path d="M44.5 0L45.5103 3.10942H48.7798L46.1347 5.03115L47.145 8.14058L44.5 6.21885L41.855 8.14058L42.8653 5.03115L40.2202 3.10942H43.4897L44.5 0Z" fill="#FFC107"/>
<defs>
<linearGradient id="paint0_linear_104_15" x1="-219.556" y1="1596.96" x2="8200" y2="3349.14" gradientUnits="userSpaceOnUse">
<stop stop-color="#2298BD"/>
<stop offset="1" stop-color="#0ED7B5"/>
</linearGradient>
<clipPath id="clip0_104_15">
<rect width="32" height="32" fill="white" transform="translate(8 20)"/>
</clipPath>
</defs>
</svg>
