<svg width="36" height="36" viewBox="0 0 36 36" fill="none" xmlns="http://www.w3.org/2000/svg">
<g clip-path="url(#clip0_120_8)">
<path d="M31.5 4.488V31.512C31.4969 31.9059 31.3389 32.2828 31.0602 32.5612C30.7815 32.8396 30.4044 32.9973 30.0105 33H5.9895C5.59472 33 5.21609 32.8433 4.93679 32.5643C4.6575 32.2853 4.5004 31.9068 4.5 31.512V4.488C4.50314 4.09407 4.66113 3.71719 4.93983 3.43877C5.21853 3.16035 5.59557 3.00275 5.9895 3H30.0105C30.8325 3 31.5 3.666 31.5 4.488ZM28.5 6H7.5V30H28.5V6ZM16.9395 19.6815L23.304 13.3185L25.425 15.4395L16.9395 23.925L11.1045 18.09L13.227 15.969L16.9395 19.6815Z" fill="white"/>
</g>
<defs>
<clipPath id="clip0_120_8">
<rect width="36" height="36" fill="white"/>
</clipPath>
</defs>
</svg>
