<svg width="49" height="47" viewBox="0 0 49 47" fill="none" xmlns="http://www.w3.org/2000/svg">
<path d="M4.5 0L5.51031 3.10942H8.77975L6.13472 5.03115L7.14503 8.14058L4.5 6.21885L1.85497 8.14058L2.86528 5.03115L0.220246 3.10942H3.48969L4.5 0Z" fill="#FFC107"/>
<path d="M14.5 0L15.5103 3.10942H18.7798L16.1347 5.03115L17.145 8.14058L14.5 6.21885L11.855 8.14058L12.8653 5.03115L10.2202 3.10942H13.4897L14.5 0Z" fill="#FFC107"/>
<path d="M24.5 0L25.5103 3.10942H28.7798L26.1347 5.03115L27.145 8.14058L24.5 6.21885L21.855 8.14058L22.8653 5.03115L20.2202 3.10942H23.4897L24.5 0Z" fill="#FFC107"/>
<path d="M34.5 0L35.5103 3.10942H38.7798L36.1347 5.03115L37.145 8.14058L34.5 6.21885L31.855 8.14058L32.8653 5.03115L30.2202 3.10942H33.4897L34.5 0Z" fill="#FFC107"/>
<path d="M44.5 0L45.5103 3.10942H48.7798L46.1347 5.03115L47.145 8.14058L44.5 6.21885L41.855 8.14058L42.8653 5.03115L40.2202 3.10942H43.4897L44.5 0Z" fill="#FFC107"/>
<g clip-path="url(#clip0_104_16)">
<path d="M9 31V47H25H41V31V15H25H9V31Z" fill="#007ACC"/>
<path d="M16.0764 31.1061L16.0662 32.4166H18.1488H20.2313V38.3341V44.2515H21.7043H23.1774V38.3341V32.4166H25.2599H27.3424V31.1315C27.3424 30.4204 27.3272 29.8261 27.3069 29.8109C27.2916 29.7906 24.757 29.7804 21.684 29.7855L16.0916 29.8007L16.0764 31.1061Z" fill="white"/>
<path d="M34.8208 29.7635C35.6335 29.9667 36.2532 30.3273 36.8221 30.9166C37.1167 31.2315 37.5535 31.8054 37.5891 31.9426C37.5992 31.9832 36.2075 32.9178 35.3643 33.441C35.3338 33.4613 35.2119 33.3293 35.0748 33.1261C34.6634 32.5267 34.2316 32.2677 33.5713 32.222C32.6011 32.1559 31.9764 32.6639 31.9815 33.5121C31.9815 33.761 32.017 33.9083 32.1186 34.1115C32.3319 34.5534 32.7281 34.8175 33.9726 35.3559C36.2634 36.3413 37.2437 36.9915 37.8532 37.9159C38.5338 38.947 38.6862 40.5927 38.224 41.8169C37.7161 43.1477 36.4564 44.0518 34.6837 44.3515C34.1351 44.448 32.8348 44.4327 32.2456 44.3261C30.9605 44.0975 29.7415 43.4626 28.9897 42.6296C28.6951 42.3045 28.1211 41.4562 28.1567 41.3953C28.1719 41.375 28.304 41.2937 28.4513 41.2073C28.5935 41.1261 29.1319 40.8162 29.6399 40.5216L30.5592 39.9883L30.7523 40.2727C31.0215 40.6842 31.6107 41.248 31.9662 41.4359C32.9872 41.9743 34.3891 41.8981 35.0799 41.2785C35.3745 41.0093 35.4964 40.7299 35.4964 40.3185C35.4964 39.9477 35.4507 39.7851 35.2577 39.5058C35.0088 39.1502 34.5008 38.8505 33.0583 38.2258C31.4075 37.5146 30.6964 37.0727 30.0462 36.3718C29.6704 35.9654 29.3148 35.3153 29.1675 34.7718C29.0456 34.3197 29.0151 33.187 29.1116 32.7299C29.4519 31.135 30.6557 30.0226 32.3929 29.6924C32.9567 29.5858 34.2672 29.6264 34.8208 29.7635Z" fill="white"/>
</g>
<defs>
<clipPath id="clip0_104_16">
<rect width="32" height="32" fill="white" transform="translate(9 15)"/>
</clipPath>
</defs>
</svg>
