<svg width="32" height="47" viewBox="0 0 32 47" fill="none" xmlns="http://www.w3.org/2000/svg">
<g clip-path="url(#clip0_104_20)">
<path d="M12.5813 17.5725L0.581395 19.1962C0.246834 19.2411 -0.00272748 19.5393 2.25066e-05 19.8906V29.6128C2.25066e-05 29.9964 0.298521 30.3073 0.666707 30.3073H12.6667C13.0348 30.3073 13.3333 29.9964 13.3333 29.6128V18.26C13.3331 18.0605 13.2505 17.8708 13.1067 17.7392C12.9617 17.6094 12.7712 17.5489 12.5813 17.5725Z" fill="#F44336"/>
<path d="M31.7733 15.2031C31.6304 15.069 31.4389 15.0057 31.2479 15.0295L15.248 17.2031C14.9135 17.2481 14.6639 17.5462 14.6667 17.8976V29.6129C14.6667 29.9964 14.9652 30.3074 15.3334 30.3074H31.3333C31.7015 30.3074 32 29.9964 32 29.6129V15.724C31.9997 15.5245 31.9171 15.3348 31.7733 15.2031Z" fill="#4CAF50"/>
<path d="M12.6667 31.6962H0.666707C0.298521 31.6962 2.25066e-05 32.0071 2.25066e-05 32.3906V42.1128C-0.00272748 42.4642 0.246834 42.7623 0.581332 42.8073L12.5813 44.4378C12.6097 44.4398 12.6382 44.4398 12.6666 44.4378C13.0348 44.4378 13.3333 44.1269 13.3333 43.7434V32.3906C13.3333 32.0071 13.0348 31.6962 12.6667 31.6962Z" fill="#2196F3"/>
<path d="M31.3333 31.6962H15.3333C14.9651 31.6962 14.6666 32.0071 14.6666 32.3906V44.1059C14.6639 44.4573 14.9135 44.7554 15.248 44.8004L31.2479 46.974C31.2763 46.976 31.3048 46.976 31.3332 46.974C31.7014 46.974 31.9999 46.6631 31.9999 46.2796V32.3906C31.9999 32.0071 31.7014 31.6962 31.3333 31.6962Z" fill="#FFC107"/>
</g>
<path d="M10.5 0L11.5103 3.10942H14.7798L12.1347 5.03115L13.145 8.14058L10.5 6.21885L7.85497 8.14058L8.86528 5.03115L6.22025 3.10942H9.48969L10.5 0Z" fill="#FFC107"/>
<path d="M20.5 0L21.5103 3.10942H24.7798L22.1347 5.03115L23.145 8.14058L20.5 6.21885L17.855 8.14058L18.8653 5.03115L16.2202 3.10942H19.4897L20.5 0Z" fill="#FFC107"/>
<defs>
<clipPath id="clip0_104_20">
<rect width="32" height="32" fill="white" transform="translate(0 15)"/>
</clipPath>
</defs>
</svg>
