<svg width="32" height="32" viewBox="0 0 32 32" fill="none" xmlns="http://www.w3.org/2000/svg">
<g clip-path="url(#clip0_14_285)">
<path d="M27.5103 4.48975C24.615 1.59444 20.7656 0 16.6711 0C12.5766 0 8.72706 1.59444 5.83175 4.48975C2.93644 7.38506 1.34206 11.2344 1.34206 15.3289C1.34206 17.9226 1.99862 20.4714 3.24487 22.7291L0 32L9.27081 28.7552C11.5286 30.0013 14.0773 30.6579 16.671 30.6579C20.7655 30.6579 24.615 29.0634 27.5102 26.1682C30.4055 23.2729 32 19.4235 32 15.3289C32 11.2344 30.4055 7.385 27.5103 4.48975ZM16.6711 28.7809C14.265 28.7809 11.9034 28.1374 9.84188 26.9199L9.46631 26.6981L3.0595 28.9404L5.30188 22.5337L5.08006 22.1581C3.86262 20.0966 3.21913 17.7351 3.21913 15.329C3.21913 7.91156 9.25369 1.87706 16.6711 1.87706C24.0884 1.87706 30.123 7.91163 30.123 15.329C30.123 22.7464 24.0884 28.7809 16.6711 28.7809Z" fill="white"/>
<path d="M24.9126 19.0326L22.7006 16.8205C21.9688 16.0886 20.7779 16.0886 20.046 16.8205L19.1999 17.6666C17.1451 16.552 15.4479 14.8549 14.3333 12.8001L15.1794 11.9539C15.5339 11.5994 15.7291 11.128 15.7291 10.6266C15.7291 10.1253 15.5339 9.65388 15.1794 9.29938L12.9673 7.08732C12.6128 6.73282 12.1414 6.53757 11.6401 6.53757C11.1386 6.53757 10.6673 6.73282 10.3128 7.08732L8.54319 8.85694C7.54444 9.85569 7.49745 11.5796 8.41088 13.7109C9.20888 15.5729 10.6699 17.6199 12.5249 19.4749C14.3799 21.3299 16.4269 22.7909 18.2889 23.5889C19.3048 24.0243 20.2278 24.2414 21.0241 24.2414C21.8986 24.2414 22.6202 23.9794 23.1429 23.4566L24.9125 21.687C25.2671 21.3325 25.4623 20.8611 25.4623 20.3598C25.4623 19.8584 25.2671 19.3871 24.9126 19.0326ZM21.8158 22.1295C21.4207 22.5245 20.3266 22.4202 19.0283 21.8638C17.3807 21.1576 15.5424 19.8379 13.8522 18.1477C12.162 16.4575 10.8423 14.6193 10.1361 12.9716C9.57969 11.6733 9.47544 10.5792 9.87038 10.1841L11.6401 8.41451L13.8521 10.6266L12.0572 12.4215L12.3403 13.0192C13.7167 15.9248 16.0749 18.283 18.9806 19.6594L19.5783 19.9426L21.3732 18.1476L23.5853 20.3597L21.8158 22.1295Z" fill="white"/>
</g>
<defs>
<clipPath id="clip0_14_285">
<rect width="32" height="32" fill="white"/>
</clipPath>
</defs>
</svg>
